<?xml version="1.0" encoding="utf-8"?>
<!-- Generator: Adobe Illustrator 27.7.0, SVG Export Plug-In . SVG Version: 6.00 Build 0)  -->
<svg version="1.1" id="Camada_1" xmlns="http://www.w3.org/2000/svg" xmlns:xlink="http://www.w3.org/1999/xlink" x="0px" y="0px"
	 viewBox="0 0 244 153.29" style="enable-background:new 0 0 244 153.29;" xml:space="preserve">
<style type="text/css">
	.st0{fill:#2F9837;}
	.st1{fill:#FFFFFF;}
	.st2{fill-rule:evenodd;clip-rule:evenodd;fill:#FFFFFF;}
	.st3{stroke:#000000;stroke-width:0.3;stroke-linecap:round;stroke-linejoin:round;stroke-miterlimit:10;}
</style>
<path class="st0" d="M0.11,147.21V6.08c0-3.3,2.67-5.97,5.97-5.97h231.83c3.3,0,5.97,2.67,5.97,5.97v141.13
	c0,3.3-2.67,5.97-5.97,5.97H6.08C2.78,153.18,0.11,150.5,0.11,147.21z"/>
<path class="st1" d="M9.75,145.25h224.5c1.31,0,2.38-1.06,2.38-2.38v-35.98c0-1.31-1.06-2.38-2.38-2.38H9.75
	c-1.31,0-2.38,1.06-2.38,2.38v35.98C7.37,144.19,8.43,145.25,9.75,145.25z"/>
<path class="st1" d="M11.04,102.6h221.92c2.03,0,3.67-1.64,3.67-3.67V10.72c0-2.03-1.64-3.67-3.67-3.67H11.04
	c-2.03,0-3.67,1.64-3.67,3.67v88.22C7.37,100.96,9.01,102.6,11.04,102.6z"/>
<g>
	<path d="M11.08,13.68h2.47v0.75H12v0.92h1.45v0.74H12v1.62h-0.92V13.68z"/>
	<path d="M15.03,13.97c0,0.25-0.19,0.46-0.49,0.46c-0.29,0-0.48-0.2-0.47-0.46c-0.01-0.26,0.19-0.46,0.48-0.46
		S15.03,13.71,15.03,13.97z M14.09,17.72v-2.93h0.91v2.93H14.09z"/>
	<path d="M15.74,13.46h0.91v4.26h-0.91V13.46z"/>
	<path d="M18.33,13.97c0,0.25-0.19,0.46-0.49,0.46c-0.29,0-0.48-0.2-0.47-0.46c-0.01-0.26,0.19-0.46,0.48-0.46
		S18.32,13.71,18.33,13.97z M17.39,17.72v-2.93h0.91v2.93H17.39z"/>
	<path d="M20.7,17.72l-0.05-0.29h-0.02c-0.19,0.23-0.49,0.36-0.84,0.36c-0.59,0-0.95-0.43-0.95-0.9c0-0.76,0.68-1.13,1.72-1.12
		v-0.04c0-0.16-0.08-0.38-0.53-0.38c-0.3,0-0.62,0.1-0.81,0.22l-0.17-0.59c0.2-0.11,0.61-0.26,1.14-0.26c0.98,0,1.29,0.58,1.29,1.27
		v1.02c0,0.28,0.01,0.55,0.04,0.71H20.7z M20.59,16.34c-0.48-0.01-0.85,0.11-0.85,0.46c0,0.23,0.16,0.35,0.36,0.35
		c0.23,0,0.41-0.15,0.47-0.34c0.01-0.05,0.02-0.1,0.02-0.16V16.34z"/>
	<path d="M24.4,17.65c-0.14,0.06-0.38,0.11-0.67,0.13l-0.11,0.21c0.23,0.02,0.43,0.19,0.43,0.43c0,0.39-0.34,0.53-0.73,0.53
		c-0.19,0-0.37-0.05-0.49-0.12l0.12-0.34c0.11,0.06,0.23,0.1,0.33,0.1c0.11,0,0.22-0.04,0.21-0.16c0-0.11-0.13-0.19-0.46-0.22
		l0.22-0.46c-0.76-0.12-1.22-0.67-1.22-1.48c0-0.86,0.59-1.56,1.68-1.56c0.24,0,0.5,0.04,0.7,0.11l-0.14,0.68
		c-0.11-0.05-0.27-0.09-0.51-0.09c-0.48,0-0.79,0.34-0.79,0.82c0,0.54,0.36,0.82,0.8,0.82c0.22,0,0.38-0.04,0.52-0.09L24.4,17.65z"
		/>
	<path d="M26.6,17.72l-0.05-0.29h-0.02c-0.19,0.23-0.49,0.36-0.84,0.36c-0.59,0-0.95-0.43-0.95-0.9c0-0.76,0.68-1.13,1.72-1.12
		v-0.04c0-0.16-0.08-0.38-0.53-0.38c-0.3,0-0.62,0.1-0.81,0.22l-0.17-0.59c0.2-0.11,0.61-0.26,1.14-0.26c0.98,0,1.29,0.58,1.29,1.27
		v1.02c0,0.28,0.01,0.55,0.04,0.71H26.6z M25.24,14.37c-0.02-0.5,0.19-0.79,0.49-0.79c0.15,0,0.27,0.06,0.39,0.12
		c0.1,0.06,0.18,0.12,0.25,0.12c0.1,0,0.14-0.05,0.16-0.27h0.42c0.02,0.55-0.17,0.77-0.49,0.77c-0.17,0-0.29-0.07-0.41-0.13
		c-0.11-0.06-0.15-0.1-0.23-0.1c-0.08,0-0.14,0.09-0.14,0.27H25.24z M26.49,16.34c-0.48-0.01-0.85,0.11-0.85,0.46
		c0,0.23,0.16,0.35,0.36,0.35c0.23,0,0.41-0.15,0.47-0.34c0.01-0.05,0.02-0.1,0.02-0.16V16.34z"/>
	<path d="M30.99,16.22c0,1.07-0.76,1.57-1.55,1.57c-0.86,0-1.52-0.56-1.52-1.51c0-0.95,0.62-1.55,1.57-1.55
		C30.39,14.72,30.99,15.34,30.99,16.22z M28.87,16.25c0,0.5,0.21,0.88,0.6,0.88c0.35,0,0.58-0.35,0.58-0.88
		c0-0.44-0.17-0.88-0.58-0.88C29.03,15.37,28.87,15.82,28.87,16.25z"/>
	<path d="M31.49,15.3c0-0.32,0.22-0.55,0.54-0.55c0.32,0,0.53,0.22,0.53,0.55c0,0.31-0.22,0.55-0.54,0.55
		C31.72,15.85,31.49,15.62,31.49,15.3z M31.49,17.24c0-0.32,0.22-0.55,0.54-0.55c0.32,0,0.53,0.23,0.53,0.55
		c0,0.31-0.22,0.55-0.54,0.55C31.72,17.79,31.49,17.55,31.49,17.24z"/>
	<path d="M11.08,38.32v-4.04h1.07l0.84,1.48c0.24,0.43,0.48,0.93,0.66,1.38h0.02c-0.06-0.53-0.08-1.08-0.08-1.68v-1.18h0.84v4.04
		h-0.96l-0.86-1.56c-0.24-0.43-0.5-0.95-0.7-1.43l-0.02,0.01c0.02,0.53,0.04,1.1,0.04,1.76v1.22H11.08z"/>
	<path d="M16.86,38.32l-0.05-0.29h-0.02c-0.19,0.23-0.49,0.36-0.84,0.36c-0.59,0-0.95-0.43-0.95-0.9c0-0.76,0.68-1.13,1.72-1.12
		v-0.04c0-0.16-0.08-0.38-0.53-0.38c-0.3,0-0.62,0.1-0.81,0.22l-0.17-0.59c0.2-0.11,0.61-0.26,1.14-0.26c0.98,0,1.29,0.58,1.29,1.26
		v1.02c0,0.28,0.01,0.55,0.04,0.71H16.86z M16.75,36.94c-0.48-0.01-0.85,0.11-0.85,0.46c0,0.23,0.16,0.35,0.36,0.35
		c0.23,0,0.41-0.15,0.47-0.33c0.01-0.05,0.02-0.1,0.02-0.16V36.94z"/>
	<path d="M19.33,34.55v0.84h0.65v0.67h-0.65v1.06c0,0.35,0.08,0.52,0.36,0.52c0.11,0,0.2-0.01,0.27-0.02l0.01,0.69
		c-0.12,0.05-0.34,0.08-0.59,0.08c-0.29,0-0.54-0.1-0.68-0.25c-0.17-0.17-0.25-0.46-0.25-0.87v-1.2h-0.39v-0.67h0.39v-0.64
		L19.33,34.55z"/>
	<path d="M23.28,37.38c0,0.38,0.01,0.7,0.02,0.94h-0.79l-0.04-0.41h-0.02c-0.11,0.18-0.39,0.48-0.92,0.48
		c-0.59,0-1.03-0.37-1.03-1.28v-1.72h0.92v1.58c0,0.43,0.14,0.68,0.46,0.68c0.25,0,0.4-0.17,0.46-0.32c0.02-0.05,0.03-0.13,0.03-0.2
		v-1.75h0.92V37.38z"/>
	<path d="M24.01,36.35c0-0.43-0.01-0.71-0.02-0.97h0.79l0.03,0.54h0.02c0.15-0.43,0.51-0.61,0.79-0.61c0.08,0,0.12,0,0.19,0.01v0.86
		c-0.07-0.01-0.14-0.02-0.25-0.02c-0.34,0-0.56,0.18-0.62,0.46c-0.01,0.06-0.02,0.13-0.02,0.2v1.49h-0.91V36.35z"/>
	<path d="M27.89,38.32l-0.05-0.29h-0.02c-0.19,0.23-0.49,0.36-0.84,0.36c-0.59,0-0.95-0.43-0.95-0.9c0-0.76,0.68-1.13,1.72-1.12
		v-0.04c0-0.16-0.08-0.38-0.53-0.38c-0.3,0-0.62,0.1-0.81,0.22l-0.17-0.59c0.2-0.11,0.61-0.26,1.14-0.26c0.98,0,1.29,0.58,1.29,1.26
		v1.02c0,0.28,0.01,0.55,0.04,0.71H27.89z M27.78,36.94c-0.48-0.01-0.85,0.11-0.85,0.46c0,0.23,0.16,0.35,0.36,0.35
		c0.23,0,0.41-0.15,0.47-0.33c0.01-0.05,0.02-0.1,0.02-0.16V36.94z"/>
	<path d="M29.39,34.06h0.91v4.26h-0.91V34.06z"/>
	<path d="M31.99,34.57c0,0.25-0.19,0.46-0.49,0.46c-0.29,0-0.48-0.2-0.47-0.46c-0.01-0.26,0.19-0.46,0.48-0.46
		S31.98,34.31,31.99,34.57z M31.04,38.32v-2.93h0.91v2.93H31.04z"/>
	<path d="M35.53,34.06v3.38c0,0.33,0.01,0.68,0.02,0.88h-0.81l-0.04-0.43h-0.01c-0.19,0.33-0.54,0.5-0.92,0.5
		c-0.7,0-1.25-0.59-1.25-1.51c-0.01-0.99,0.61-1.56,1.31-1.56c0.36,0,0.64,0.13,0.77,0.33h0.01v-1.59H35.53z M34.62,36.63
		c0-0.05-0.01-0.11-0.01-0.16c-0.05-0.25-0.25-0.45-0.53-0.45c-0.41,0-0.63,0.37-0.63,0.83c0,0.5,0.25,0.81,0.62,0.81
		c0.26,0,0.47-0.18,0.53-0.44c0.02-0.07,0.02-0.13,0.02-0.21V36.63z"/>
	<path d="M37.93,38.32l-0.05-0.29h-0.02c-0.19,0.23-0.49,0.36-0.84,0.36c-0.59,0-0.95-0.43-0.95-0.9c0-0.76,0.68-1.13,1.72-1.12
		v-0.04c0-0.16-0.08-0.38-0.53-0.38c-0.3,0-0.62,0.1-0.81,0.22l-0.17-0.59c0.2-0.11,0.61-0.26,1.14-0.26c0.98,0,1.29,0.58,1.29,1.26
		v1.02c0,0.28,0.01,0.55,0.04,0.71H37.93z M37.82,36.94c-0.48-0.01-0.85,0.11-0.85,0.46c0,0.23,0.16,0.35,0.36,0.35
		c0.23,0,0.41-0.15,0.47-0.33c0.01-0.05,0.02-0.1,0.02-0.16V36.94z"/>
	<path d="M42.28,34.06v3.38c0,0.33,0.01,0.68,0.02,0.88h-0.81l-0.04-0.43h-0.01c-0.19,0.33-0.54,0.5-0.92,0.5
		c-0.7,0-1.25-0.59-1.25-1.51c-0.01-0.99,0.61-1.56,1.31-1.56c0.36,0,0.64,0.13,0.77,0.33h0.01v-1.59H42.28z M41.36,36.63
		c0-0.05-0.01-0.11-0.01-0.16c-0.05-0.25-0.25-0.45-0.53-0.45c-0.41,0-0.63,0.37-0.63,0.83c0,0.5,0.25,0.81,0.62,0.81
		c0.26,0,0.47-0.18,0.53-0.44c0.02-0.07,0.02-0.13,0.02-0.21V36.63z"/>
	<path d="M43.71,37.14c0.03,0.38,0.4,0.56,0.83,0.56c0.31,0,0.56-0.04,0.81-0.12l0.12,0.62c-0.3,0.12-0.67,0.18-1.06,0.18
		c-1,0-1.56-0.58-1.56-1.49c0-0.74,0.46-1.56,1.48-1.56c0.95,0,1.31,0.74,1.31,1.46c0,0.16-0.02,0.29-0.03,0.36H43.71z M44.78,36.52
		c0-0.22-0.1-0.59-0.52-0.59c-0.38,0-0.54,0.35-0.56,0.59H44.78z"/>
	<path d="M46.11,35.9c0-0.32,0.22-0.55,0.54-0.55c0.32,0,0.53,0.22,0.53,0.55c0,0.31-0.22,0.55-0.54,0.55
		C46.33,36.45,46.11,36.22,46.11,35.9z M46.11,37.84c0-0.32,0.22-0.55,0.54-0.55c0.32,0,0.53,0.23,0.53,0.55
		c0,0.31-0.22,0.55-0.54,0.55C46.33,38.39,46.11,38.15,46.11,37.84z"/>
	<path d="M183.57,34.28v2.33c0,0.7,0.26,1.05,0.73,1.05c0.48,0,0.74-0.33,0.74-1.05v-2.33h0.91v2.27c0,1.25-0.63,1.84-1.69,1.84
		c-1.02,0-1.62-0.56-1.62-1.85v-2.25H183.57z"/>
	<path d="M186.75,34.28h2.47v0.75h-1.55v0.92h1.45v0.74h-1.45v1.62h-0.92V34.28z"/>
	<path d="M189.7,35.9c0-0.32,0.22-0.55,0.54-0.55c0.32,0,0.53,0.22,0.53,0.55c0,0.31-0.22,0.55-0.54,0.55
		C189.93,36.45,189.7,36.22,189.7,35.9z M189.7,37.84c0-0.32,0.22-0.55,0.54-0.55c0.32,0,0.53,0.23,0.53,0.55
		c0,0.31-0.22,0.55-0.54,0.55C189.93,38.39,189.7,38.15,189.7,37.84z"/>
	<path d="M13.49,46.91H12v0.96h1.66v0.75h-2.58v-4.04h2.5v0.75H12v0.84h1.49V46.91z"/>
	<path d="M14.26,46.62c0-0.37-0.01-0.68-0.02-0.94h0.79l0.04,0.4h0.02c0.12-0.19,0.42-0.47,0.91-0.47c0.6,0,1.05,0.4,1.05,1.26v1.74
		h-0.91V47c0-0.38-0.13-0.64-0.46-0.64c-0.25,0-0.4,0.17-0.46,0.34c-0.02,0.05-0.04,0.14-0.04,0.23v1.69h-0.91V46.62z"/>
	<path d="M20.61,44.36v3.38c0,0.33,0.01,0.68,0.02,0.88h-0.81l-0.04-0.43h-0.01c-0.19,0.33-0.54,0.5-0.92,0.5
		c-0.7,0-1.25-0.59-1.25-1.51c-0.01-0.99,0.61-1.56,1.31-1.56c0.36,0,0.64,0.13,0.77,0.33h0.01v-1.59H20.61z M19.7,46.93
		c0-0.05-0.01-0.11-0.01-0.16c-0.05-0.25-0.25-0.45-0.53-0.45c-0.41,0-0.63,0.37-0.63,0.83c0,0.5,0.25,0.81,0.62,0.81
		c0.26,0,0.47-0.18,0.53-0.44c0.02-0.07,0.02-0.13,0.02-0.21V46.93z"/>
	<path d="M21.23,48.14c0-0.32,0.22-0.56,0.54-0.56c0.32,0,0.53,0.23,0.53,0.56c0,0.32-0.22,0.55-0.54,0.55
		C21.45,48.69,21.23,48.45,21.23,48.14z"/>
	<path d="M22.79,46.2c0-0.32,0.22-0.55,0.54-0.55c0.32,0,0.53,0.22,0.53,0.55c0,0.31-0.22,0.55-0.54,0.55
		C23.01,46.75,22.79,46.52,22.79,46.2z M22.79,48.14c0-0.32,0.22-0.55,0.54-0.55c0.32,0,0.53,0.23,0.53,0.55
		c0,0.31-0.22,0.55-0.54,0.55C23.01,48.69,22.79,48.45,22.79,48.14z"/>
	<path d="M11.08,54.93c0.24-0.05,0.73-0.08,1.18-0.08c0.56,0,0.9,0.05,1.19,0.23c0.28,0.15,0.49,0.43,0.49,0.79
		c0,0.36-0.21,0.7-0.67,0.86v0.01c0.46,0.13,0.8,0.47,0.8,1c0,0.37-0.17,0.65-0.42,0.86c-0.29,0.23-0.79,0.37-1.59,0.37
		c-0.45,0-0.79-0.03-0.99-0.06V54.93z M11.99,56.48h0.3c0.48,0,0.74-0.2,0.74-0.5c0-0.31-0.23-0.47-0.65-0.47
		c-0.2,0-0.31,0.01-0.39,0.02V56.48z M11.99,58.27c0.09,0.01,0.2,0.01,0.35,0.01c0.41,0,0.78-0.16,0.78-0.58
		c0-0.41-0.37-0.57-0.82-0.57h-0.31V58.27z"/>
	<path d="M16.36,58.92l-0.05-0.29h-0.02c-0.19,0.23-0.49,0.36-0.84,0.36c-0.59,0-0.95-0.43-0.95-0.9c0-0.76,0.68-1.13,1.72-1.12
		v-0.04c0-0.16-0.08-0.38-0.53-0.38c-0.3,0-0.62,0.1-0.81,0.22l-0.17-0.59c0.2-0.11,0.61-0.26,1.14-0.26c0.98,0,1.29,0.58,1.29,1.26
		v1.02c0,0.28,0.01,0.55,0.04,0.71H16.36z M16.25,57.54c-0.48-0.01-0.85,0.11-0.85,0.46c0,0.23,0.16,0.35,0.36,0.35
		c0.23,0,0.41-0.15,0.47-0.34c0.01-0.05,0.02-0.1,0.02-0.16V57.54z"/>
	<path d="M18.8,55.17c0,0.25-0.19,0.46-0.49,0.46c-0.29,0-0.48-0.2-0.47-0.46c-0.01-0.26,0.19-0.46,0.48-0.46
		C18.61,54.71,18.8,54.91,18.8,55.17z M17.86,58.92v-2.93h0.91v2.93H17.86z"/>
	<path d="M19.51,56.95c0-0.43-0.01-0.71-0.02-0.97h0.79l0.03,0.54h0.02c0.15-0.43,0.51-0.61,0.79-0.61c0.08,0,0.13,0,0.19,0.01v0.86
		c-0.07-0.01-0.14-0.02-0.25-0.02c-0.34,0-0.56,0.18-0.62,0.46c-0.01,0.06-0.02,0.13-0.02,0.2v1.49h-0.91V56.95z"/>
	<path d="M21.79,56.95c0-0.43-0.01-0.71-0.02-0.97h0.79l0.03,0.54h0.02c0.15-0.43,0.51-0.61,0.79-0.61c0.08,0,0.12,0,0.19,0.01v0.86
		c-0.07-0.01-0.14-0.02-0.25-0.02c-0.34,0-0.56,0.18-0.62,0.46c-0.01,0.06-0.02,0.13-0.02,0.2v1.49h-0.91V56.95z"/>
	<path d="M26.91,57.42c0,1.07-0.76,1.57-1.55,1.57c-0.86,0-1.52-0.56-1.52-1.51s0.62-1.55,1.57-1.55
		C26.31,55.92,26.91,56.54,26.91,57.42z M24.79,57.45c0,0.5,0.21,0.88,0.6,0.88c0.35,0,0.58-0.35,0.58-0.88
		c0-0.44-0.17-0.88-0.58-0.88C24.95,56.57,24.79,57.02,24.79,57.45z"/>
	<path d="M27.41,56.5c0-0.32,0.22-0.55,0.54-0.55c0.32,0,0.53,0.22,0.53,0.55c0,0.31-0.22,0.55-0.54,0.55
		C27.64,57.05,27.41,56.82,27.41,56.5z M27.41,58.44c0-0.32,0.22-0.55,0.54-0.55c0.32,0,0.53,0.23,0.53,0.55
		c0,0.31-0.22,0.55-0.54,0.55C27.64,58.99,27.41,58.75,27.41,58.44z"/>
	<path d="M14.05,69.11c-0.17,0.08-0.55,0.17-1.04,0.17c-1.4,0-2.12-0.87-2.12-2.02c0-1.38,0.98-2.15,2.21-2.15
		c0.47,0,0.83,0.1,1,0.18l-0.19,0.73c-0.19-0.08-0.44-0.15-0.77-0.15c-0.73,0-1.29,0.44-1.29,1.34c0,0.81,0.48,1.32,1.3,1.32
		c0.28,0,0.58-0.06,0.76-0.13L14.05,69.11z"/>
	<path d="M17.06,67.51h-1.49v0.96h1.66v0.75h-2.58v-4.04h2.49v0.75h-1.58v0.84h1.49V67.51z"/>
	<path d="M17.86,65.23c0.28-0.05,0.68-0.08,1.24-0.08c0.56,0,0.96,0.11,1.23,0.32c0.26,0.2,0.43,0.54,0.43,0.94
		s-0.13,0.73-0.37,0.96c-0.31,0.29-0.77,0.43-1.31,0.43c-0.12,0-0.23-0.01-0.31-0.02v1.45h-0.91V65.23z M18.76,67.07
		c0.08,0.02,0.17,0.02,0.31,0.02c0.49,0,0.79-0.25,0.79-0.66c0-0.37-0.26-0.59-0.71-0.59c-0.19,0-0.31,0.02-0.38,0.04V67.07z"/>
	<path d="M21.19,66.8c0-0.32,0.22-0.55,0.54-0.55c0.32,0,0.53,0.22,0.53,0.55c0,0.31-0.22,0.55-0.54,0.55
		C21.41,67.35,21.19,67.12,21.19,66.8z M21.19,68.74c0-0.32,0.22-0.55,0.54-0.55c0.32,0,0.53,0.23,0.53,0.55
		c0,0.31-0.22,0.55-0.54,0.55C21.41,69.29,21.19,69.05,21.19,68.74z"/>
	<path d="M14.05,79.41c-0.17,0.08-0.55,0.17-1.04,0.17c-1.4,0-2.12-0.87-2.12-2.02c0-1.38,0.98-2.15,2.21-2.15
		c0.47,0,0.83,0.1,1,0.18l-0.19,0.73c-0.19-0.08-0.44-0.15-0.77-0.15c-0.73,0-1.29,0.44-1.29,1.34c0,0.81,0.48,1.32,1.3,1.32
		c0.28,0,0.58-0.06,0.76-0.13L14.05,79.41z"/>
	<path d="M15.54,75.77c0,0.25-0.19,0.46-0.49,0.46c-0.29,0-0.48-0.2-0.47-0.46c-0.01-0.26,0.19-0.46,0.48-0.46
		S15.53,75.51,15.54,75.77z M14.6,79.52v-2.93h0.91v2.93H14.6z"/>
	<path d="M19.08,75.26v3.38c0,0.33,0.01,0.68,0.02,0.88H18.3l-0.04-0.43h-0.01c-0.19,0.33-0.54,0.5-0.92,0.5
		c-0.7,0-1.25-0.59-1.25-1.51c-0.01-0.99,0.61-1.56,1.31-1.56c0.36,0,0.64,0.13,0.77,0.33h0.01v-1.59H19.08z M18.17,77.83
		c0-0.05-0.01-0.11-0.01-0.16c-0.05-0.25-0.25-0.45-0.53-0.45c-0.41,0-0.63,0.37-0.63,0.83c0,0.5,0.25,0.81,0.62,0.81
		c0.26,0,0.47-0.18,0.53-0.44c0.02-0.07,0.02-0.13,0.02-0.21V77.83z"/>
	<path d="M21.49,79.52l-0.05-0.29h-0.02c-0.19,0.23-0.49,0.36-0.84,0.36c-0.59,0-0.95-0.43-0.95-0.9c0-0.76,0.68-1.13,1.72-1.12
		v-0.04c0-0.16-0.08-0.38-0.53-0.38c-0.3,0-0.62,0.1-0.81,0.22l-0.17-0.59c0.2-0.11,0.61-0.26,1.14-0.26c0.98,0,1.29,0.58,1.29,1.26
		v1.02c0,0.28,0.01,0.55,0.04,0.71H21.49z M21.38,78.14c-0.48-0.01-0.85,0.11-0.85,0.46c0,0.23,0.16,0.35,0.36,0.35
		c0.23,0,0.41-0.15,0.47-0.34c0.01-0.05,0.02-0.1,0.02-0.16V78.14z"/>
	<path d="M25.83,75.26v3.38c0,0.33,0.01,0.68,0.02,0.88h-0.81L25,79.09h-0.01c-0.19,0.33-0.54,0.5-0.92,0.5
		c-0.7,0-1.25-0.59-1.25-1.51c-0.01-0.99,0.61-1.56,1.31-1.56c0.36,0,0.64,0.13,0.77,0.33h0.01v-1.59H25.83z M24.92,77.83
		c0-0.05-0.01-0.11-0.01-0.16c-0.05-0.25-0.25-0.45-0.53-0.45c-0.41,0-0.63,0.37-0.63,0.83c0,0.5,0.25,0.81,0.62,0.81
		c0.26,0,0.47-0.18,0.53-0.44c0.02-0.07,0.02-0.13,0.02-0.21V77.83z"/>
	<path d="M27.26,78.35c0.03,0.38,0.4,0.56,0.83,0.56c0.31,0,0.56-0.04,0.81-0.12l0.12,0.62c-0.3,0.12-0.67,0.18-1.06,0.18
		c-1,0-1.57-0.58-1.57-1.49c0-0.74,0.46-1.56,1.48-1.56c0.95,0,1.31,0.74,1.31,1.46c0,0.16-0.02,0.29-0.03,0.36H27.26z M28.34,77.72
		c0-0.22-0.1-0.59-0.52-0.59c-0.38,0-0.54,0.35-0.56,0.59H28.34z"/>
	<path d="M29.66,77.1c0-0.32,0.22-0.55,0.54-0.55c0.32,0,0.53,0.22,0.53,0.55c0,0.31-0.22,0.55-0.54,0.55
		C29.89,77.65,29.66,77.42,29.66,77.1z M29.66,79.04c0-0.32,0.22-0.55,0.54-0.55c0.32,0,0.53,0.23,0.53,0.55
		c0,0.31-0.22,0.55-0.54,0.55C29.89,79.59,29.66,79.35,29.66,79.04z"/>
	<path d="M12.03,89.82l-1.29-4.04h1l0.49,1.71c0.14,0.48,0.26,0.94,0.36,1.45h0.02c0.1-0.49,0.23-0.96,0.37-1.43l0.52-1.73h0.97
		l-1.36,4.04H12.03z"/>
	<path d="M16.28,89.82l-0.05-0.29h-0.02c-0.19,0.23-0.49,0.36-0.84,0.36c-0.59,0-0.95-0.43-0.95-0.9c0-0.76,0.68-1.13,1.72-1.12
		v-0.04c0-0.16-0.08-0.38-0.53-0.38c-0.3,0-0.62,0.1-0.81,0.22l-0.17-0.59c0.2-0.11,0.61-0.26,1.14-0.26c0.98,0,1.29,0.58,1.29,1.26
		v1.02c0,0.28,0.01,0.55,0.04,0.71H16.28z M16.17,88.44c-0.48-0.01-0.85,0.11-0.85,0.46c0,0.23,0.16,0.35,0.36,0.35
		c0.23,0,0.41-0.15,0.47-0.33c0.01-0.05,0.02-0.1,0.02-0.16V88.44z"/>
	<path d="M17.78,85.56h0.91v4.26h-0.91V85.56z"/>
	<path d="M20.37,86.07c0,0.25-0.19,0.46-0.49,0.46c-0.29,0-0.48-0.2-0.47-0.46c-0.01-0.26,0.19-0.46,0.48-0.46
		S20.37,85.81,20.37,86.07z M19.43,89.82v-2.93h0.91v2.93H19.43z"/>
	<path d="M23.92,85.56v3.38c0,0.33,0.01,0.68,0.02,0.88h-0.81l-0.04-0.43h-0.01c-0.19,0.33-0.54,0.5-0.92,0.5
		c-0.7,0-1.25-0.59-1.25-1.51c-0.01-0.99,0.61-1.56,1.31-1.56c0.36,0,0.64,0.13,0.77,0.33h0.01v-1.59H23.92z M23.01,88.13
		c0-0.05-0.01-0.11-0.01-0.16c-0.05-0.25-0.25-0.45-0.53-0.45c-0.41,0-0.63,0.37-0.63,0.83c0,0.5,0.25,0.81,0.62,0.81
		c0.26,0,0.47-0.18,0.53-0.44c0.02-0.07,0.02-0.13,0.02-0.21V88.13z"/>
	<path d="M26.32,89.82l-0.05-0.29h-0.02c-0.19,0.23-0.49,0.36-0.84,0.36c-0.59,0-0.95-0.43-0.95-0.9c0-0.76,0.68-1.13,1.72-1.12
		v-0.04c0-0.16-0.08-0.38-0.53-0.38c-0.3,0-0.62,0.1-0.81,0.22l-0.17-0.59c0.2-0.11,0.61-0.26,1.14-0.26c0.98,0,1.29,0.58,1.29,1.26
		v1.02c0,0.28,0.01,0.55,0.04,0.71H26.32z M26.21,88.44c-0.48-0.01-0.85,0.11-0.85,0.46c0,0.23,0.16,0.35,0.36,0.35
		c0.23,0,0.41-0.15,0.47-0.33c0.01-0.05,0.02-0.1,0.02-0.16V88.44z"/>
	<path d="M30.66,85.56v3.38c0,0.33,0.01,0.68,0.02,0.88h-0.81l-0.04-0.43h-0.01c-0.19,0.33-0.54,0.5-0.92,0.5
		c-0.7,0-1.25-0.59-1.25-1.51c-0.01-0.99,0.61-1.56,1.31-1.56c0.36,0,0.64,0.13,0.77,0.33h0.01v-1.59H30.66z M29.75,88.13
		c0-0.05-0.01-0.11-0.01-0.16c-0.05-0.25-0.25-0.45-0.53-0.45c-0.41,0-0.63,0.37-0.63,0.83c0,0.5,0.25,0.81,0.62,0.81
		c0.26,0,0.47-0.18,0.53-0.44c0.02-0.07,0.02-0.13,0.02-0.21V88.13z"/>
	<path d="M32.1,88.64c0.03,0.38,0.4,0.56,0.83,0.56c0.31,0,0.56-0.04,0.81-0.12l0.12,0.62c-0.3,0.12-0.67,0.18-1.06,0.18
		c-1,0-1.57-0.58-1.57-1.49c0-0.74,0.46-1.56,1.48-1.56c0.95,0,1.31,0.74,1.31,1.46c0,0.16-0.02,0.29-0.03,0.36H32.1z M33.17,88.02
		c0-0.22-0.1-0.59-0.52-0.59c-0.38,0-0.54,0.35-0.56,0.59H33.17z"/>
	<path d="M34.5,87.4c0-0.32,0.22-0.55,0.54-0.55c0.32,0,0.53,0.22,0.53,0.55c0,0.31-0.22,0.55-0.54,0.55
		C34.72,87.95,34.5,87.72,34.5,87.4z M34.5,89.34c0-0.32,0.22-0.55,0.54-0.55c0.32,0,0.53,0.23,0.53,0.55
		c0,0.31-0.22,0.55-0.54,0.55C34.72,89.89,34.5,89.65,34.5,89.34z"/>
	<path d="M11.08,96.08H12v3.27h1.61v0.77h-2.52V96.08z"/>
	<path d="M16.96,98.62c0,1.07-0.76,1.57-1.55,1.57c-0.86,0-1.52-0.56-1.52-1.51s0.62-1.55,1.57-1.55
		C16.36,97.12,16.96,97.74,16.96,98.62z M14.84,98.65c0,0.5,0.21,0.88,0.6,0.88c0.35,0,0.58-0.35,0.58-0.88
		c0-0.44-0.17-0.88-0.58-0.88C15,97.77,14.84,98.22,14.84,98.65z"/>
	<path d="M18.55,96.35v0.84h0.65v0.67h-0.65v1.06c0,0.35,0.08,0.52,0.36,0.52c0.11,0,0.2-0.01,0.27-0.02l0.01,0.69
		c-0.12,0.05-0.34,0.08-0.59,0.08c-0.29,0-0.54-0.1-0.68-0.25c-0.17-0.17-0.25-0.46-0.25-0.87v-1.2h-0.39v-0.67h0.39v-0.64
		L18.55,96.35z"/>
	<path d="M20.4,98.95c0.03,0.38,0.4,0.56,0.83,0.56c0.31,0,0.56-0.04,0.81-0.12l0.12,0.62c-0.3,0.12-0.67,0.18-1.06,0.18
		c-1,0-1.57-0.58-1.57-1.49c0-0.74,0.46-1.56,1.48-1.56c0.95,0,1.31,0.74,1.31,1.46c0,0.16-0.02,0.29-0.03,0.36H20.4z M21.47,98.32
		c0-0.22-0.1-0.59-0.52-0.59c-0.38,0-0.54,0.35-0.56,0.59H21.47z"/>
	<path d="M22.8,97.7c0-0.32,0.22-0.55,0.54-0.55c0.32,0,0.53,0.22,0.53,0.55c0,0.31-0.22,0.55-0.54,0.55
		C23.02,98.25,22.8,98.02,22.8,97.7z M22.8,99.64c0-0.32,0.22-0.55,0.54-0.55c0.32,0,0.53,0.23,0.53,0.55
		c0,0.31-0.22,0.55-0.54,0.55C23.02,100.19,22.8,99.95,22.8,99.64z"/>
</g>
<g>
	<g>
		<path d="M42.06,139.75l-0.3,0.99H41.1l1.12-3.51h0.82l1.14,3.51h-0.69l-0.32-0.99H42.06z M43.07,139.26l-0.28-0.86
			c-0.07-0.21-0.12-0.45-0.18-0.66H42.6c-0.05,0.2-0.1,0.45-0.17,0.66l-0.27,0.86H43.07z"/>
		<path d="M44.59,140.15c0.15,0.09,0.42,0.18,0.65,0.18c0.28,0,0.41-0.12,0.41-0.28c0-0.17-0.1-0.26-0.42-0.37
			c-0.49-0.17-0.7-0.44-0.7-0.74c0-0.45,0.37-0.8,0.96-0.8c0.28,0,0.53,0.07,0.67,0.15l-0.12,0.45c-0.11-0.06-0.31-0.15-0.54-0.15
			c-0.23,0-0.35,0.11-0.35,0.26c0,0.16,0.12,0.24,0.44,0.35c0.46,0.17,0.67,0.4,0.68,0.78c0,0.46-0.36,0.79-1.03,0.79
			c-0.31,0-0.58-0.07-0.77-0.18L44.59,140.15z"/>
		<path d="M46.75,140.15c0.15,0.09,0.42,0.18,0.65,0.18c0.28,0,0.41-0.12,0.41-0.28c0-0.17-0.1-0.26-0.42-0.37
			c-0.49-0.17-0.7-0.44-0.7-0.74c0-0.45,0.37-0.8,0.96-0.8c0.28,0,0.53,0.07,0.67,0.15l-0.12,0.45c-0.11-0.06-0.31-0.15-0.54-0.15
			c-0.23,0-0.35,0.11-0.35,0.26c0,0.16,0.12,0.24,0.44,0.35c0.46,0.17,0.67,0.4,0.68,0.78c0,0.46-0.36,0.79-1.03,0.79
			c-0.31,0-0.58-0.07-0.77-0.18L46.75,140.15z"/>
		<path d="M49.64,137.5c0,0.19-0.14,0.34-0.36,0.34c-0.21,0-0.35-0.15-0.35-0.34c0-0.2,0.15-0.35,0.36-0.35
			C49.49,137.15,49.63,137.3,49.64,137.5z M48.95,140.74v-2.53h0.65v2.53H48.95z"/>
		<path d="M50.28,138.96c0-0.29,0-0.54-0.02-0.75h0.56l0.03,0.38h0.02c0.11-0.2,0.38-0.44,0.81-0.44c0.44,0,0.9,0.29,0.9,1.09v1.5
			h-0.64v-1.43c0-0.36-0.13-0.64-0.48-0.64c-0.25,0-0.43,0.18-0.5,0.37c-0.02,0.06-0.03,0.14-0.03,0.21v1.49h-0.65V138.96z"/>
		<path d="M54.68,140.74l-0.04-0.28h-0.02c-0.16,0.2-0.42,0.34-0.75,0.34c-0.51,0-0.8-0.37-0.8-0.75c0-0.64,0.57-0.96,1.5-0.96
			v-0.04c0-0.17-0.07-0.44-0.52-0.44c-0.25,0-0.51,0.08-0.68,0.19l-0.12-0.42c0.19-0.11,0.52-0.22,0.92-0.22
			c0.81,0,1.05,0.51,1.05,1.07v0.92c0,0.23,0.01,0.45,0.04,0.61H54.68z M54.6,139.5c-0.45-0.01-0.88,0.09-0.88,0.47
			c0,0.25,0.16,0.36,0.36,0.36c0.25,0,0.44-0.17,0.5-0.35c0.02-0.05,0.02-0.1,0.02-0.14V139.5z"/>
		<path d="M56.6,137.48v0.72h0.61v0.48H56.6v1.12c0,0.31,0.08,0.47,0.33,0.47c0.11,0,0.19-0.02,0.25-0.03l0.01,0.49
			c-0.09,0.04-0.26,0.06-0.46,0.06c-0.23,0-0.43-0.08-0.55-0.21c-0.13-0.15-0.2-0.37-0.2-0.71v-1.19h-0.36v-0.48h0.36v-0.57
			L56.6,137.48z"/>
		<path d="M59.96,139.98c0,0.3,0.01,0.55,0.02,0.76h-0.56l-0.03-0.38h-0.01c-0.11,0.18-0.36,0.44-0.81,0.44
			c-0.46,0-0.88-0.28-0.88-1.1v-1.49h0.64v1.38c0,0.42,0.14,0.69,0.47,0.69c0.25,0,0.42-0.18,0.49-0.34
			c0.02-0.06,0.04-0.12,0.04-0.2v-1.53h0.64V139.98z"/>
		<path d="M60.65,139.02c0-0.34,0-0.59-0.02-0.82h0.56l0.02,0.48h0.02c0.12-0.36,0.42-0.54,0.69-0.54c0.06,0,0.1,0,0.15,0.02v0.6
			c-0.05-0.01-0.11-0.02-0.19-0.02c-0.31,0-0.51,0.2-0.57,0.48c-0.01,0.06-0.02,0.12-0.02,0.2v1.31h-0.64V139.02z"/>
		<path d="M63.88,140.74l-0.04-0.28h-0.02c-0.16,0.2-0.42,0.34-0.75,0.34c-0.51,0-0.8-0.37-0.8-0.75c0-0.64,0.57-0.96,1.5-0.96
			v-0.04c0-0.17-0.07-0.44-0.52-0.44c-0.25,0-0.51,0.08-0.68,0.19l-0.12-0.42c0.19-0.11,0.52-0.22,0.92-0.22
			c0.81,0,1.05,0.51,1.05,1.07v0.92c0,0.23,0.01,0.45,0.04,0.61H63.88z M63.8,139.5c-0.45-0.01-0.88,0.09-0.88,0.47
			c0,0.25,0.16,0.36,0.36,0.36c0.25,0,0.44-0.17,0.5-0.35c0.02-0.05,0.02-0.1,0.02-0.14V139.5z"/>
		<path d="M68.51,137.05v2.98c0,0.26,0.01,0.54,0.02,0.71h-0.57l-0.03-0.4h-0.01c-0.15,0.28-0.46,0.46-0.83,0.46
			c-0.6,0-1.08-0.52-1.08-1.3c0-0.85,0.53-1.35,1.13-1.35c0.35,0,0.6,0.15,0.71,0.33h0.01v-1.44H68.51z M67.87,139.26
			c0-0.05,0-0.11-0.02-0.17c-0.06-0.25-0.26-0.45-0.55-0.45c-0.41,0-0.64,0.36-0.64,0.84c0,0.46,0.23,0.8,0.63,0.8
			c0.26,0,0.49-0.18,0.55-0.45c0.02-0.06,0.02-0.12,0.02-0.19V139.26z"/>
		<path d="M71.6,139.45c0,0.93-0.66,1.35-1.3,1.35c-0.72,0-1.27-0.49-1.27-1.31c0-0.83,0.55-1.34,1.31-1.34
			C71.1,138.15,71.6,138.68,71.6,139.45z M69.69,139.48c0,0.49,0.24,0.86,0.63,0.86c0.36,0,0.62-0.36,0.62-0.87
			c0-0.4-0.18-0.85-0.61-0.85C69.87,138.62,69.69,139.05,69.69,139.48z"/>
		<path d="M73.2,137.14c-0.33,0.49-0.59,1.18-0.59,2.12c0,0.92,0.26,1.6,0.59,2.1h-0.47c-0.3-0.42-0.63-1.09-0.63-2.1
			c0-1.01,0.33-1.7,0.63-2.12H73.2z"/>
		<path d="M75.12,140.74l-0.04-0.28h-0.02c-0.16,0.2-0.42,0.34-0.75,0.34c-0.51,0-0.8-0.37-0.8-0.75c0-0.64,0.57-0.96,1.5-0.96
			v-0.04c0-0.17-0.07-0.44-0.51-0.44c-0.25,0-0.51,0.08-0.68,0.19l-0.12-0.42c0.19-0.11,0.51-0.22,0.92-0.22
			c0.81,0,1.05,0.51,1.05,1.07v0.92c0,0.23,0.01,0.45,0.04,0.61H75.12z M75.03,139.5c-0.45-0.01-0.88,0.09-0.88,0.47
			c0,0.25,0.16,0.36,0.36,0.36c0.25,0,0.44-0.17,0.5-0.35c0.02-0.05,0.02-0.1,0.02-0.14V139.5z"/>
		<path d="M76.13,141.35c0.33-0.49,0.58-1.19,0.58-2.11c0-0.93-0.25-1.61-0.58-2.11h0.46c0.3,0.42,0.63,1.09,0.63,2.11
			c-0.01,1.01-0.33,1.69-0.63,2.11H76.13z"/>
		<path d="M79,137.28c0.23-0.04,0.55-0.07,0.98-0.07c0.47,0,0.81,0.1,1.04,0.29c0.21,0.17,0.34,0.45,0.34,0.77
			c0,0.33-0.1,0.61-0.3,0.8c-0.25,0.25-0.66,0.37-1.11,0.37c-0.12,0-0.23,0-0.31-0.02v1.32H79V137.28z M79.63,138.91
			c0.08,0.02,0.18,0.03,0.31,0.03c0.48,0,0.77-0.23,0.77-0.65c0-0.39-0.27-0.6-0.71-0.6c-0.18,0-0.3,0.02-0.37,0.03V138.91z"/>
		<path d="M81.82,139.02c0-0.34,0-0.59-0.02-0.82h0.56l0.02,0.48h0.02c0.12-0.36,0.42-0.54,0.69-0.54c0.06,0,0.1,0,0.15,0.02v0.6
			c-0.05-0.01-0.11-0.02-0.19-0.02c-0.31,0-0.51,0.2-0.57,0.48c-0.01,0.06-0.02,0.12-0.02,0.2v1.31h-0.64V139.02z"/>
		<path d="M84.07,139.65c0.02,0.46,0.38,0.66,0.78,0.66c0.3,0,0.51-0.04,0.7-0.11l0.09,0.44c-0.22,0.09-0.52,0.16-0.88,0.16
			c-0.82,0-1.31-0.5-1.31-1.28c0-0.7,0.43-1.36,1.24-1.36c0.82,0,1.09,0.68,1.09,1.23c0,0.12-0.01,0.21-0.02,0.27H84.07z
			 M85.19,139.21c0-0.23-0.1-0.62-0.53-0.62c-0.4,0-0.56,0.36-0.59,0.62H85.19z"/>
		<path d="M86.27,140.15c0.15,0.09,0.42,0.18,0.65,0.18c0.28,0,0.41-0.12,0.41-0.28c0-0.17-0.1-0.26-0.42-0.37
			c-0.49-0.17-0.7-0.44-0.7-0.74c0-0.45,0.37-0.8,0.96-0.8c0.28,0,0.53,0.07,0.67,0.15l-0.12,0.45c-0.11-0.06-0.31-0.15-0.54-0.15
			c-0.23,0-0.35,0.11-0.35,0.26c0,0.16,0.12,0.24,0.44,0.35c0.46,0.17,0.67,0.4,0.68,0.78c0,0.46-0.36,0.79-1.03,0.79
			c-0.31,0-0.58-0.07-0.77-0.18L86.27,140.15z"/>
		<path d="M89.15,137.5c0,0.19-0.14,0.34-0.36,0.34c-0.21,0-0.35-0.15-0.35-0.34c0-0.2,0.15-0.35,0.36-0.35
			C89.01,137.15,89.15,137.3,89.15,137.5z M88.47,140.74v-2.53h0.65v2.53H88.47z"/>
		<path d="M92.14,137.05v2.98c0,0.26,0.01,0.54,0.02,0.71h-0.57l-0.03-0.4h-0.01c-0.15,0.28-0.46,0.46-0.83,0.46
			c-0.6,0-1.08-0.52-1.08-1.3c0-0.85,0.53-1.35,1.13-1.35c0.35,0,0.6,0.15,0.71,0.33h0.01v-1.44H92.14z M91.5,139.26
			c0-0.05,0-0.11-0.02-0.17c-0.06-0.25-0.26-0.45-0.55-0.45c-0.41,0-0.64,0.36-0.64,0.84c0,0.46,0.23,0.8,0.63,0.8
			c0.26,0,0.49-0.18,0.55-0.45c0.02-0.06,0.02-0.12,0.02-0.19V139.26z"/>
		<path d="M93.28,139.65c0.02,0.46,0.38,0.66,0.78,0.66c0.3,0,0.51-0.04,0.7-0.11l0.09,0.44c-0.22,0.09-0.52,0.16-0.88,0.16
			c-0.82,0-1.31-0.5-1.31-1.28c0-0.7,0.43-1.36,1.24-1.36c0.82,0,1.09,0.68,1.09,1.23c0,0.12-0.01,0.21-0.02,0.27H93.28z
			 M94.39,139.21c0-0.23-0.1-0.62-0.53-0.62c-0.4,0-0.56,0.36-0.59,0.62H94.39z"/>
		<path d="M95.51,138.96c0-0.29,0-0.54-0.02-0.75h0.56l0.03,0.38h0.02c0.11-0.2,0.39-0.44,0.81-0.44c0.44,0,0.9,0.29,0.9,1.09v1.5
			h-0.64v-1.43c0-0.36-0.14-0.64-0.48-0.64c-0.25,0-0.43,0.18-0.5,0.37c-0.02,0.06-0.03,0.14-0.03,0.21v1.49h-0.65V138.96z"/>
		<path d="M99.19,137.48v0.72h0.61v0.48h-0.61v1.12c0,0.31,0.08,0.47,0.33,0.47c0.11,0,0.19-0.02,0.25-0.03l0.01,0.49
			c-0.09,0.04-0.26,0.06-0.46,0.06c-0.23,0-0.43-0.08-0.55-0.21c-0.14-0.15-0.2-0.37-0.2-0.71v-1.19H98.2v-0.48h0.36v-0.57
			L99.19,137.48z"/>
		<path d="M100.7,139.65c0.02,0.46,0.38,0.66,0.78,0.66c0.3,0,0.51-0.04,0.7-0.11l0.09,0.44c-0.22,0.09-0.52,0.16-0.88,0.16
			c-0.82,0-1.31-0.5-1.31-1.28c0-0.7,0.43-1.36,1.24-1.36c0.82,0,1.09,0.68,1.09,1.23c0,0.12-0.01,0.21-0.02,0.27H100.7z
			 M101.81,139.21c0-0.23-0.1-0.62-0.53-0.62c-0.4,0-0.56,0.36-0.59,0.62H101.81z"/>
	</g>
	<line class="st3" x1="17.71" y1="134.43" x2="125.86" y2="134.43"/>
</g>
</svg>
