<?xml version="1.0" encoding="utf-8"?>
<!-- Generator: Adobe Illustrator 27.7.0, SVG Export Plug-In . SVG Version: 6.00 Build 0)  -->
<svg version="1.1" id="Camada_1" xmlns="http://www.w3.org/2000/svg" xmlns:xlink="http://www.w3.org/1999/xlink" x="0px" y="0px"
	 viewBox="0 0 244 153.29" style="enable-background:new 0 0 244 153.29;" xml:space="preserve">
<style type="text/css">
	.st0{fill:#2F9837;}
	.st1{fill:#FFFFFF;}
	.st2{fill-rule:evenodd;clip-rule:evenodd;fill:#FFFFFF;}
	.st3{stroke:#000000;stroke-width:0.3;stroke-linecap:round;stroke-linejoin:round;stroke-miterlimit:10;}
</style>
<path class="st0" d="M0.11,147.21V6.08c0-3.3,2.67-5.97,5.97-5.97h231.83c3.3,0,5.97,2.67,5.97,5.97v141.13
	c0,3.3-2.67,5.97-5.97,5.97H6.08C2.78,153.18,0.11,150.5,0.11,147.21z"/>
<g>
	<g>
		<path class="st1" d="M80.73,42.86c0,0.21-0.05,0.39-0.15,0.54c-0.1,0.15-0.25,0.27-0.44,0.36c-0.19,0.08-0.43,0.13-0.71,0.13
			c-0.12,0-0.24-0.01-0.36-0.02c-0.12-0.02-0.23-0.04-0.34-0.07c-0.11-0.03-0.21-0.07-0.3-0.12v-0.69c0.17,0.07,0.34,0.14,0.52,0.2
			c0.18,0.06,0.36,0.09,0.54,0.09c0.12,0,0.22-0.02,0.3-0.05s0.13-0.08,0.16-0.13C79.98,43.04,80,42.97,80,42.9
			c0-0.09-0.03-0.16-0.09-0.23c-0.06-0.06-0.14-0.12-0.24-0.18c-0.1-0.05-0.22-0.11-0.35-0.18c-0.08-0.04-0.17-0.09-0.27-0.14
			c-0.1-0.06-0.19-0.12-0.27-0.2c-0.09-0.08-0.16-0.18-0.21-0.29c-0.06-0.12-0.08-0.25-0.08-0.41c0-0.21,0.05-0.39,0.14-0.54
			c0.1-0.15,0.23-0.26,0.41-0.34c0.18-0.08,0.39-0.12,0.64-0.12c0.18,0,0.36,0.02,0.52,0.06c0.17,0.04,0.34,0.1,0.52,0.18
			l-0.24,0.58c-0.16-0.07-0.31-0.12-0.44-0.15c-0.13-0.04-0.26-0.05-0.39-0.05c-0.09,0-0.17,0.01-0.24,0.04
			c-0.07,0.03-0.12,0.07-0.15,0.13c-0.03,0.05-0.05,0.12-0.05,0.19c0,0.08,0.02,0.15,0.07,0.21c0.05,0.06,0.12,0.11,0.22,0.17
			s0.22,0.11,0.37,0.19c0.18,0.09,0.33,0.17,0.46,0.27c0.13,0.09,0.23,0.2,0.3,0.33C80.69,42.53,80.73,42.68,80.73,42.86z"/>
		<path class="st1" d="M81.37,43.84v-3.52h0.75v3.52H81.37z"/>
		<path class="st1" d="M86.13,43.84h-0.95l-1.53-2.67h-0.02c0.01,0.11,0.01,0.22,0.02,0.33c0,0.11,0.01,0.22,0.01,0.34
			c0,0.11,0.01,0.22,0.01,0.34v1.66H83v-3.52h0.94l1.53,2.64h0.02c0-0.11-0.01-0.22-0.01-0.33c0-0.11-0.01-0.22-0.01-0.32
			c0-0.11-0.01-0.22-0.01-0.32v-1.67h0.67V43.84z"/>
		<path class="st1" d="M89.94,42.05c0,0.4-0.08,0.73-0.23,0.99c-0.15,0.27-0.37,0.47-0.66,0.6c-0.29,0.13-0.63,0.2-1.04,0.2h-1
			v-3.52h1.11c0.37,0,0.69,0.07,0.96,0.2c0.27,0.13,0.48,0.32,0.63,0.58C89.86,41.35,89.94,41.67,89.94,42.05z M89.16,42.07
			c0-0.26-0.04-0.47-0.11-0.64c-0.08-0.17-0.19-0.29-0.34-0.37c-0.15-0.08-0.33-0.12-0.55-0.12h-0.4v2.29h0.32
			c0.36,0,0.64-0.1,0.81-0.29C89.07,42.74,89.16,42.45,89.16,42.07z"/>
		<path class="st1" d="M90.67,43.84v-3.52h0.75v3.52H90.67z"/>
		<path class="st1" d="M93.8,40.89c-0.14,0-0.27,0.03-0.38,0.08c-0.11,0.06-0.2,0.14-0.28,0.24c-0.07,0.1-0.13,0.23-0.17,0.38
			c-0.04,0.15-0.06,0.31-0.06,0.5c0,0.25,0.03,0.46,0.09,0.64c0.06,0.18,0.16,0.31,0.29,0.4c0.13,0.09,0.3,0.14,0.5,0.14
			c0.14,0,0.29-0.02,0.43-0.05c0.14-0.03,0.3-0.08,0.47-0.14v0.63c-0.16,0.06-0.31,0.11-0.46,0.14c-0.15,0.03-0.32,0.04-0.51,0.04
			c-0.36,0-0.66-0.08-0.9-0.23c-0.23-0.15-0.41-0.36-0.52-0.63c-0.11-0.27-0.17-0.59-0.17-0.95c0-0.27,0.04-0.51,0.11-0.73
			c0.07-0.22,0.18-0.41,0.32-0.58c0.14-0.16,0.31-0.29,0.52-0.38c0.21-0.09,0.44-0.13,0.71-0.13c0.18,0,0.35,0.02,0.53,0.07
			c0.18,0.04,0.34,0.1,0.5,0.18l-0.24,0.61c-0.13-0.06-0.26-0.12-0.4-0.16C94.06,40.91,93.93,40.89,93.8,40.89z"/>
		<path class="st1" d="M97.61,43.84L97.35,43h-1.28l-0.26,0.84h-0.81l1.24-3.54h0.91l1.25,3.54H97.61z M97.17,42.38l-0.26-0.82
			c-0.02-0.05-0.04-0.12-0.06-0.21c-0.03-0.09-0.05-0.17-0.08-0.26s-0.05-0.17-0.06-0.23c-0.02,0.07-0.04,0.15-0.07,0.24
			c-0.03,0.1-0.05,0.19-0.08,0.28c-0.03,0.09-0.04,0.15-0.06,0.19l-0.25,0.82H97.17z"/>
		<path class="st1" d="M100.21,43.84h-0.75v-2.9h-0.96v-0.62h2.66v0.62h-0.96V43.84z"/>
		<path class="st1" d="M104.91,42.08c0,0.27-0.03,0.52-0.1,0.74c-0.07,0.22-0.17,0.41-0.31,0.58c-0.14,0.16-0.31,0.28-0.52,0.37
			c-0.21,0.09-0.46,0.13-0.75,0.13s-0.54-0.04-0.75-0.13c-0.21-0.09-0.38-0.21-0.52-0.37c-0.14-0.16-0.24-0.35-0.31-0.58
			c-0.07-0.22-0.1-0.47-0.1-0.74c0-0.36,0.06-0.68,0.18-0.95c0.12-0.27,0.3-0.48,0.55-0.63c0.25-0.15,0.57-0.22,0.95-0.22
			c0.38,0,0.7,0.07,0.94,0.22c0.25,0.15,0.43,0.36,0.55,0.63C104.85,41.39,104.91,41.71,104.91,42.08z M102.34,42.08
			c0,0.25,0.03,0.46,0.09,0.64c0.06,0.18,0.16,0.31,0.29,0.41c0.13,0.1,0.3,0.14,0.51,0.14c0.21,0,0.38-0.05,0.52-0.14
			c0.13-0.1,0.23-0.23,0.29-0.41c0.06-0.18,0.09-0.39,0.09-0.64c0-0.37-0.07-0.66-0.21-0.87c-0.14-0.21-0.37-0.32-0.68-0.32
			c-0.21,0-0.38,0.05-0.51,0.14c-0.13,0.1-0.23,0.23-0.29,0.41C102.37,41.62,102.34,41.83,102.34,42.08z"/>
		<path class="st1" d="M109.85,42.05c0,0.4-0.08,0.73-0.23,0.99c-0.15,0.27-0.37,0.47-0.66,0.6c-0.29,0.13-0.63,0.2-1.04,0.2h-1
			v-3.52h1.11c0.37,0,0.69,0.07,0.96,0.2c0.27,0.13,0.48,0.32,0.63,0.58C109.77,41.35,109.85,41.67,109.85,42.05z M109.07,42.07
			c0-0.26-0.04-0.47-0.11-0.64c-0.08-0.17-0.19-0.29-0.34-0.37c-0.15-0.08-0.33-0.12-0.55-0.12h-0.4v2.29h0.32
			c0.36,0,0.64-0.1,0.81-0.29C108.98,42.74,109.07,42.45,109.07,42.07z"/>
		<path class="st1" d="M113.78,42.08c0,0.27-0.03,0.52-0.1,0.74c-0.07,0.22-0.17,0.41-0.31,0.58c-0.14,0.16-0.31,0.28-0.52,0.37
			c-0.21,0.09-0.46,0.13-0.75,0.13c-0.29,0-0.54-0.04-0.75-0.13c-0.21-0.09-0.38-0.21-0.52-0.37c-0.14-0.16-0.24-0.35-0.31-0.58
			c-0.07-0.22-0.1-0.47-0.1-0.74c0-0.36,0.06-0.68,0.18-0.95c0.12-0.27,0.3-0.48,0.55-0.63c0.25-0.15,0.57-0.22,0.95-0.22
			c0.38,0,0.7,0.07,0.94,0.22c0.25,0.15,0.43,0.36,0.55,0.63C113.72,41.39,113.78,41.71,113.78,42.08z M111.21,42.08
			c0,0.25,0.03,0.46,0.09,0.64c0.06,0.18,0.16,0.31,0.29,0.41c0.13,0.1,0.3,0.14,0.51,0.14c0.21,0,0.38-0.05,0.52-0.14
			c0.13-0.1,0.23-0.23,0.29-0.41c0.06-0.18,0.09-0.39,0.09-0.64c0-0.37-0.07-0.66-0.21-0.87c-0.14-0.21-0.37-0.32-0.68-0.32
			c-0.21,0-0.38,0.05-0.51,0.14c-0.13,0.1-0.23,0.23-0.29,0.41C111.24,41.62,111.21,41.83,111.21,42.08z"/>
		<path class="st1" d="M117.28,43.84l-0.85-2.76h-0.02c0,0.07,0.01,0.17,0.02,0.3c0.01,0.13,0.01,0.27,0.02,0.42
			c0.01,0.15,0.01,0.28,0.01,0.4v1.64h-0.67v-3.52h1.02l0.83,2.69h0.01l0.88-2.69h1.02v3.52h-0.7v-1.67c0-0.11,0-0.24,0.01-0.38
			c0-0.14,0.01-0.28,0.02-0.41c0.01-0.13,0.01-0.23,0.01-0.3h-0.02l-0.91,2.76H117.28z"/>
		<path class="st1" d="M122.6,43.84L122.35,43h-1.28l-0.26,0.84H120l1.24-3.54h0.91l1.25,3.54H122.6z M122.17,42.38l-0.26-0.82
			c-0.02-0.05-0.04-0.12-0.06-0.21c-0.03-0.09-0.05-0.17-0.08-0.26s-0.05-0.17-0.06-0.23c-0.02,0.07-0.04,0.15-0.07,0.24
			c-0.03,0.1-0.05,0.19-0.08,0.28c-0.03,0.09-0.04,0.15-0.06,0.19l-0.25,0.82H122.17z"/>
		<path class="st1" d="M125.19,41.86h1.4v1.83c-0.18,0.06-0.38,0.11-0.58,0.15c-0.2,0.04-0.43,0.05-0.68,0.05
			c-0.35,0-0.65-0.07-0.89-0.21c-0.24-0.14-0.43-0.34-0.56-0.61c-0.13-0.27-0.19-0.6-0.19-1c0-0.37,0.07-0.69,0.21-0.96
			c0.14-0.27,0.35-0.48,0.62-0.63c0.27-0.15,0.61-0.22,1-0.22c0.19,0,0.37,0.02,0.55,0.06s0.35,0.09,0.49,0.16l-0.25,0.6
			c-0.11-0.05-0.23-0.1-0.37-0.14c-0.14-0.04-0.28-0.06-0.43-0.06c-0.22,0-0.41,0.05-0.57,0.15c-0.16,0.1-0.28,0.24-0.37,0.42
			c-0.09,0.18-0.13,0.39-0.13,0.63c0,0.23,0.03,0.43,0.09,0.61c0.06,0.18,0.16,0.32,0.3,0.42c0.14,0.1,0.31,0.15,0.53,0.15
			c0.11,0,0.2-0.01,0.27-0.02c0.07-0.01,0.14-0.02,0.21-0.03v-0.74h-0.67V41.86z"/>
		<path class="st1" d="M127.42,43.84v-3.52h0.75v3.52H127.42z"/>
		<path class="st1" d="M131.14,42.86c0,0.21-0.05,0.39-0.15,0.54s-0.25,0.27-0.44,0.36c-0.19,0.08-0.43,0.13-0.71,0.13
			c-0.12,0-0.24-0.01-0.36-0.02c-0.12-0.02-0.23-0.04-0.33-0.07c-0.11-0.03-0.21-0.07-0.3-0.12v-0.69c0.17,0.07,0.34,0.14,0.52,0.2
			c0.18,0.06,0.36,0.09,0.54,0.09c0.12,0,0.22-0.02,0.3-0.05s0.13-0.08,0.16-0.13c0.03-0.06,0.05-0.12,0.05-0.19
			c0-0.09-0.03-0.16-0.09-0.23c-0.06-0.06-0.14-0.12-0.24-0.18c-0.1-0.05-0.22-0.11-0.35-0.18c-0.08-0.04-0.17-0.09-0.27-0.14
			c-0.1-0.06-0.19-0.12-0.27-0.2c-0.09-0.08-0.16-0.18-0.21-0.29c-0.06-0.12-0.08-0.25-0.08-0.41c0-0.21,0.05-0.39,0.14-0.54
			c0.1-0.15,0.23-0.26,0.41-0.34c0.18-0.08,0.39-0.12,0.64-0.12c0.18,0,0.36,0.02,0.52,0.06c0.17,0.04,0.34,0.1,0.52,0.18
			l-0.24,0.58c-0.16-0.07-0.31-0.12-0.44-0.15c-0.13-0.04-0.26-0.05-0.39-0.05c-0.09,0-0.17,0.01-0.24,0.04
			c-0.07,0.03-0.12,0.07-0.15,0.13c-0.03,0.05-0.05,0.12-0.05,0.19c0,0.08,0.02,0.15,0.07,0.21c0.05,0.06,0.12,0.11,0.22,0.17
			s0.22,0.11,0.37,0.19c0.18,0.09,0.33,0.17,0.46,0.27s0.23,0.2,0.3,0.33C131.1,42.53,131.14,42.68,131.14,42.86z"/>
		<path class="st1" d="M133.14,43.84h-0.75v-2.9h-0.96v-0.62h2.66v0.62h-0.96V43.84z"/>
		<path class="st1" d="M136.67,43.84h-2.03v-3.52h2.03v0.61h-1.28v0.77h1.19v0.61h-1.19v0.91h1.28V43.84z M136.62,39.23v0.05
			c-0.05,0.05-0.11,0.1-0.18,0.17c-0.08,0.07-0.16,0.13-0.24,0.21c-0.09,0.07-0.17,0.14-0.26,0.2c-0.08,0.07-0.16,0.12-0.22,0.16
			h-0.49v-0.07c0.05-0.06,0.11-0.13,0.18-0.22c0.07-0.08,0.14-0.17,0.21-0.26c0.07-0.09,0.13-0.17,0.17-0.25H136.62z"/>
		<path class="st1" d="M138.43,40.32c0.32,0,0.58,0.04,0.79,0.12c0.21,0.08,0.36,0.19,0.46,0.35c0.1,0.16,0.15,0.35,0.15,0.59
			c0,0.16-0.03,0.3-0.09,0.42c-0.06,0.12-0.14,0.22-0.24,0.31c-0.1,0.08-0.21,0.15-0.32,0.2l1.04,1.54h-0.83l-0.84-1.35h-0.4v1.35
			h-0.75v-3.52H138.43z M138.37,40.93h-0.23v0.95h0.24c0.25,0,0.42-0.04,0.53-0.12c0.11-0.08,0.16-0.2,0.16-0.37
			c0-0.17-0.06-0.29-0.17-0.36C138.79,40.97,138.62,40.93,138.37,40.93z"/>
		<path class="st1" d="M140.66,43.84v-3.52h0.75v3.52H140.66z"/>
		<path class="st1" d="M145.49,42.08c0,0.27-0.03,0.52-0.1,0.74c-0.07,0.22-0.17,0.41-0.31,0.58c-0.14,0.16-0.31,0.28-0.52,0.37
			c-0.21,0.09-0.46,0.13-0.75,0.13c-0.29,0-0.54-0.04-0.75-0.13c-0.21-0.09-0.38-0.21-0.52-0.37c-0.14-0.16-0.24-0.35-0.31-0.58
			c-0.07-0.22-0.1-0.47-0.1-0.74c0-0.36,0.06-0.68,0.18-0.95c0.12-0.27,0.3-0.48,0.55-0.63c0.25-0.15,0.57-0.22,0.95-0.22
			c0.38,0,0.7,0.07,0.94,0.22c0.25,0.15,0.43,0.36,0.55,0.63C145.43,41.39,145.49,41.71,145.49,42.08z M142.92,42.08
			c0,0.25,0.03,0.46,0.09,0.64c0.06,0.18,0.16,0.31,0.29,0.41c0.13,0.1,0.3,0.14,0.51,0.14c0.21,0,0.38-0.05,0.52-0.14
			c0.13-0.1,0.23-0.23,0.29-0.41c0.06-0.18,0.09-0.39,0.09-0.64c0-0.37-0.07-0.66-0.21-0.87c-0.14-0.21-0.37-0.32-0.68-0.32
			c-0.21,0-0.38,0.05-0.51,0.14c-0.13,0.1-0.23,0.23-0.29,0.41C142.95,41.62,142.92,41.83,142.92,42.08z"/>
		<path class="st1" d="M80.14,49.77L79.29,47h-0.02c0,0.07,0.01,0.17,0.02,0.3c0.01,0.13,0.01,0.27,0.02,0.42
			c0.01,0.15,0.01,0.28,0.01,0.4v1.64h-0.67v-3.52h1.02l0.83,2.69h0.01l0.88-2.69h1.02v3.52h-0.7V48.1c0-0.11,0-0.24,0.01-0.38
			c0-0.14,0.01-0.28,0.02-0.41s0.01-0.23,0.01-0.3h-0.02l-0.91,2.76H80.14z"/>
		<path class="st1" d="M86.17,46.24v2.28c0,0.24-0.05,0.46-0.16,0.66c-0.11,0.2-0.27,0.35-0.48,0.46c-0.22,0.11-0.49,0.17-0.82,0.17
			c-0.47,0-0.82-0.12-1.07-0.36c-0.24-0.24-0.37-0.55-0.37-0.94v-2.27h0.74v2.16c0,0.29,0.06,0.49,0.18,0.61
			c0.12,0.12,0.29,0.18,0.53,0.18c0.16,0,0.3-0.03,0.4-0.08c0.1-0.06,0.18-0.14,0.23-0.26c0.05-0.12,0.07-0.27,0.07-0.45v-2.15
			H86.17z"/>
		<path class="st1" d="M90.16,49.77h-0.95l-1.53-2.67h-0.02c0.01,0.11,0.01,0.22,0.02,0.33c0,0.11,0.01,0.22,0.01,0.34
			c0,0.11,0.01,0.22,0.01,0.34v1.66h-0.67v-3.52h0.94l1.53,2.64h0.02c0-0.11-0.01-0.22-0.01-0.33c0-0.11-0.01-0.22-0.01-0.32
			c0-0.11-0.01-0.22-0.01-0.32v-1.67h0.67V49.77z"/>
		<path class="st1" d="M91.05,49.77v-3.52h0.75v3.52H91.05z"/>
		<path class="st1" d="M94.18,46.81c-0.14,0-0.27,0.03-0.38,0.08c-0.11,0.06-0.2,0.14-0.28,0.24c-0.07,0.1-0.13,0.23-0.17,0.38
			c-0.04,0.15-0.06,0.31-0.06,0.5c0,0.25,0.03,0.46,0.09,0.64c0.06,0.18,0.16,0.31,0.29,0.4c0.13,0.09,0.3,0.14,0.5,0.14
			c0.14,0,0.29-0.02,0.43-0.05s0.3-0.08,0.47-0.14v0.63c-0.16,0.06-0.31,0.11-0.46,0.14c-0.15,0.03-0.32,0.04-0.51,0.04
			c-0.36,0-0.66-0.08-0.9-0.23c-0.23-0.15-0.41-0.36-0.52-0.63c-0.11-0.27-0.17-0.59-0.17-0.95c0-0.27,0.04-0.51,0.11-0.73
			c0.07-0.22,0.18-0.41,0.32-0.58c0.14-0.16,0.31-0.29,0.52-0.38c0.21-0.09,0.44-0.13,0.71-0.13c0.18,0,0.35,0.02,0.53,0.07
			c0.18,0.04,0.34,0.1,0.5,0.18l-0.24,0.61c-0.13-0.06-0.26-0.12-0.4-0.16C94.44,46.84,94.31,46.81,94.18,46.81z"/>
		<path class="st1" d="M95.83,49.77v-3.52h0.75v3.52H95.83z"/>
		<path class="st1" d="M98.59,46.24c0.45,0,0.79,0.1,1,0.29c0.21,0.2,0.31,0.46,0.31,0.81c0,0.15-0.02,0.3-0.07,0.44
			s-0.12,0.27-0.23,0.37c-0.11,0.11-0.25,0.2-0.42,0.26c-0.18,0.06-0.39,0.1-0.65,0.1h-0.32v1.25h-0.75v-3.52H98.59z M98.55,46.86
			h-0.34v1.05h0.25c0.14,0,0.26-0.02,0.36-0.06c0.1-0.04,0.18-0.09,0.24-0.17c0.06-0.08,0.08-0.18,0.08-0.3
			c0-0.17-0.05-0.3-0.14-0.39C98.9,46.9,98.75,46.86,98.55,46.86z"/>
		<path class="st1" d="M102.72,49.77l-0.26-0.84h-1.28l-0.26,0.84h-0.81l1.24-3.54h0.91l1.25,3.54H102.72z M102.28,48.3l-0.26-0.82
			c-0.02-0.05-0.04-0.12-0.06-0.21c-0.03-0.09-0.05-0.17-0.08-0.26s-0.05-0.17-0.06-0.23c-0.02,0.07-0.04,0.15-0.07,0.24
			c-0.03,0.1-0.05,0.19-0.08,0.28c-0.03,0.09-0.04,0.15-0.06,0.19l-0.25,0.82H102.28z"/>
		<path class="st1" d="M103.97,49.77v-3.52h0.75v2.91h1.43v0.62H103.97z"/>
		<path class="st1" d="M109.16,46.24c0.45,0,0.79,0.1,1,0.29c0.21,0.2,0.31,0.46,0.31,0.81c0,0.15-0.02,0.3-0.07,0.44
			c-0.05,0.14-0.12,0.27-0.23,0.37c-0.11,0.11-0.25,0.2-0.42,0.26c-0.18,0.06-0.39,0.1-0.65,0.1h-0.32v1.25h-0.75v-3.52H109.16z
			 M109.13,46.86h-0.34v1.05h0.25c0.14,0,0.26-0.02,0.36-0.06c0.1-0.04,0.18-0.09,0.24-0.17c0.06-0.08,0.08-0.18,0.08-0.3
			c0-0.17-0.05-0.3-0.14-0.39C109.48,46.9,109.33,46.86,109.13,46.86z"/>
		<path class="st1" d="M114.01,46.24v2.28c0,0.24-0.05,0.46-0.16,0.66c-0.11,0.2-0.27,0.35-0.48,0.46
			c-0.22,0.11-0.49,0.17-0.82,0.17c-0.47,0-0.82-0.12-1.07-0.36c-0.24-0.24-0.37-0.55-0.37-0.94v-2.27h0.74v2.16
			c0,0.29,0.06,0.49,0.18,0.61c0.12,0.12,0.29,0.18,0.53,0.18c0.16,0,0.3-0.03,0.4-0.08c0.1-0.06,0.18-0.14,0.23-0.26
			c0.05-0.12,0.07-0.27,0.07-0.45v-2.15H114.01z M113.51,45.16v0.05c-0.05,0.05-0.11,0.1-0.18,0.17c-0.08,0.07-0.16,0.13-0.24,0.21
			c-0.09,0.07-0.17,0.14-0.26,0.2c-0.08,0.07-0.16,0.12-0.22,0.16h-0.49v-0.07c0.05-0.06,0.11-0.13,0.18-0.22
			c0.07-0.08,0.14-0.17,0.21-0.26c0.07-0.09,0.13-0.17,0.17-0.25H113.51z"/>
		<path class="st1" d="M114.87,46.24h1.1c0.47,0,0.82,0.07,1.07,0.2c0.24,0.13,0.36,0.36,0.36,0.69c0,0.13-0.02,0.25-0.06,0.36
			c-0.04,0.11-0.1,0.2-0.18,0.27c-0.08,0.07-0.18,0.11-0.29,0.13v0.02c0.12,0.02,0.22,0.07,0.32,0.12c0.09,0.06,0.17,0.14,0.23,0.26
			c0.06,0.11,0.09,0.26,0.09,0.44c0,0.21-0.05,0.4-0.16,0.55c-0.1,0.15-0.25,0.27-0.45,0.35c-0.19,0.08-0.42,0.12-0.69,0.12h-1.32
			V46.24z M115.62,47.64h0.43c0.22,0,0.37-0.03,0.45-0.1c0.08-0.07,0.13-0.17,0.13-0.3c0-0.13-0.05-0.23-0.15-0.29
			s-0.26-0.09-0.47-0.09h-0.39V47.64z M115.62,48.23v0.92h0.49c0.23,0,0.38-0.04,0.47-0.13c0.09-0.09,0.13-0.2,0.13-0.35
			c0-0.09-0.02-0.16-0.06-0.23c-0.04-0.07-0.1-0.12-0.19-0.15c-0.09-0.04-0.22-0.06-0.37-0.06H115.62z"/>
		<path class="st1" d="M118.19,49.77v-3.52h0.75v2.91h1.43v0.62H118.19z"/>
		<path class="st1" d="M120.97,49.77v-3.52h0.75v3.52H120.97z"/>
		<path class="st1" d="M124.11,46.81c-0.14,0-0.27,0.03-0.38,0.08c-0.11,0.06-0.2,0.14-0.28,0.24c-0.07,0.1-0.13,0.23-0.17,0.38
			c-0.04,0.15-0.06,0.31-0.06,0.5c0,0.25,0.03,0.46,0.09,0.64c0.06,0.18,0.16,0.31,0.29,0.4c0.13,0.09,0.3,0.14,0.5,0.14
			c0.14,0,0.29-0.02,0.43-0.05s0.3-0.08,0.47-0.14v0.63c-0.16,0.06-0.31,0.11-0.46,0.14c-0.15,0.03-0.32,0.04-0.51,0.04
			c-0.36,0-0.66-0.08-0.9-0.23c-0.23-0.15-0.41-0.36-0.52-0.63c-0.11-0.27-0.17-0.59-0.17-0.95c0-0.27,0.04-0.51,0.11-0.73
			c0.07-0.22,0.18-0.41,0.32-0.58c0.14-0.16,0.31-0.29,0.52-0.38c0.21-0.09,0.44-0.13,0.71-0.13c0.18,0,0.35,0.02,0.53,0.07
			c0.18,0.04,0.34,0.1,0.5,0.18l-0.24,0.61c-0.13-0.06-0.26-0.12-0.4-0.16C124.36,46.84,124.23,46.81,124.11,46.81z"/>
		<path class="st1" d="M128.95,48c0,0.27-0.03,0.52-0.1,0.74c-0.07,0.22-0.17,0.41-0.31,0.58c-0.14,0.16-0.31,0.28-0.52,0.37
			c-0.21,0.09-0.46,0.13-0.75,0.13c-0.29,0-0.54-0.04-0.75-0.13c-0.21-0.09-0.38-0.21-0.52-0.37c-0.14-0.16-0.24-0.35-0.31-0.58
			c-0.07-0.22-0.1-0.47-0.1-0.74c0-0.36,0.06-0.68,0.18-0.95c0.12-0.27,0.3-0.48,0.55-0.63c0.25-0.15,0.57-0.22,0.95-0.22
			c0.38,0,0.7,0.07,0.94,0.22c0.25,0.15,0.43,0.36,0.55,0.63C128.89,47.31,128.95,47.63,128.95,48z M126.38,48
			c0,0.25,0.03,0.46,0.09,0.64c0.06,0.18,0.16,0.31,0.29,0.41c0.13,0.1,0.3,0.14,0.51,0.14c0.21,0,0.38-0.05,0.52-0.14
			s0.23-0.23,0.29-0.41c0.06-0.18,0.09-0.39,0.09-0.64c0-0.37-0.07-0.66-0.21-0.87c-0.14-0.21-0.37-0.32-0.68-0.32
			c-0.21,0-0.38,0.05-0.51,0.14c-0.13,0.1-0.23,0.23-0.29,0.41C126.41,47.54,126.38,47.75,126.38,48z"/>
		<path class="st1" d="M81.57,53.9c0,0.4-0.08,0.73-0.23,0.99c-0.15,0.27-0.37,0.47-0.66,0.6c-0.29,0.13-0.63,0.2-1.04,0.2h-1v-3.52
			h1.11c0.37,0,0.69,0.07,0.96,0.2c0.27,0.13,0.48,0.32,0.63,0.58C81.5,53.2,81.57,53.52,81.57,53.9z M80.8,53.91
			c0-0.26-0.04-0.47-0.11-0.64c-0.08-0.17-0.19-0.29-0.34-0.37c-0.15-0.08-0.33-0.12-0.55-0.12h-0.4v2.29h0.32
			c0.36,0,0.64-0.1,0.81-0.29C80.71,54.59,80.8,54.3,80.8,53.91z"/>
		<path class="st1" d="M84.36,55.69h-2.03v-3.52h2.03v0.61h-1.28v0.77h1.19v0.61h-1.19v0.91h1.28V55.69z"/>
		<path class="st1" d="M89.2,52.17l-1.2,3.52h-0.81L86,52.17h0.75l0.66,2.1c0.01,0.04,0.03,0.1,0.06,0.2
			c0.03,0.1,0.05,0.2,0.08,0.31s0.04,0.2,0.05,0.27c0.01-0.07,0.03-0.16,0.05-0.27c0.02-0.11,0.05-0.21,0.07-0.31
			c0.02-0.1,0.04-0.16,0.05-0.2l0.67-2.1H89.2z"/>
		<path class="st1" d="M89.68,55.69v-3.52h0.75v3.52H89.68z"/>
		<path class="st1" d="M92.7,55.69h-0.75v-2.9H91v-0.62h2.66v0.62H92.7V55.69z"/>
		<path class="st1" d="M97.43,53.92c0,0.27-0.03,0.52-0.1,0.74c-0.07,0.22-0.17,0.41-0.31,0.58c-0.14,0.16-0.31,0.28-0.52,0.37
			c-0.21,0.09-0.46,0.13-0.75,0.13c-0.29,0-0.54-0.04-0.75-0.13c-0.21-0.09-0.38-0.21-0.52-0.37c-0.14-0.16-0.24-0.35-0.31-0.58
			c-0.07-0.22-0.1-0.47-0.1-0.74c0-0.36,0.06-0.68,0.18-0.95c0.12-0.27,0.3-0.48,0.55-0.63c0.25-0.15,0.57-0.22,0.95-0.22
			c0.38,0,0.7,0.07,0.94,0.22c0.25,0.15,0.43,0.36,0.55,0.63C97.37,53.24,97.43,53.56,97.43,53.92z M94.86,53.92
			c0,0.25,0.03,0.46,0.09,0.64c0.06,0.18,0.16,0.31,0.29,0.41c0.13,0.1,0.3,0.14,0.51,0.14c0.21,0,0.38-0.05,0.52-0.14
			c0.13-0.1,0.23-0.23,0.29-0.41c0.06-0.18,0.09-0.39,0.09-0.64c0-0.37-0.07-0.66-0.21-0.87c-0.14-0.21-0.37-0.32-0.68-0.32
			c-0.21,0-0.38,0.05-0.51,0.14c-0.13,0.1-0.23,0.23-0.29,0.41C94.89,53.46,94.86,53.68,94.86,53.92z M96.7,51.08v0.05
			c-0.05,0.05-0.11,0.1-0.18,0.17s-0.16,0.13-0.24,0.21c-0.09,0.07-0.17,0.14-0.26,0.2s-0.16,0.12-0.22,0.16h-0.49v-0.07
			c0.05-0.06,0.11-0.13,0.18-0.22c0.07-0.08,0.14-0.17,0.21-0.26c0.07-0.09,0.13-0.17,0.17-0.25H96.7z"/>
		<path class="st1" d="M99.21,52.17c0.32,0,0.58,0.04,0.79,0.12c0.21,0.08,0.36,0.19,0.46,0.35c0.1,0.16,0.15,0.35,0.15,0.59
			c0,0.16-0.03,0.3-0.09,0.42c-0.06,0.12-0.14,0.22-0.24,0.31c-0.1,0.08-0.21,0.15-0.32,0.2l1.04,1.54h-0.83l-0.84-1.35h-0.4v1.35
			h-0.75v-3.52H99.21z M99.16,52.78h-0.23v0.95h0.24c0.25,0,0.42-0.04,0.53-0.12c0.11-0.08,0.16-0.2,0.16-0.37
			c0-0.17-0.06-0.29-0.17-0.36C99.58,52.81,99.4,52.78,99.16,52.78z"/>
		<path class="st1" d="M101.48,55.69v-3.52h0.75v3.52H101.48z"/>
		<path class="st1" d="M105.3,55.69l-0.26-0.84h-1.28l-0.26,0.84h-0.81l1.24-3.54h0.91l1.25,3.54H105.3z M104.86,54.23l-0.26-0.82
			c-0.02-0.05-0.04-0.12-0.06-0.21c-0.03-0.09-0.05-0.17-0.08-0.26c-0.03-0.09-0.05-0.17-0.06-0.23c-0.02,0.07-0.04,0.15-0.07,0.24
			c-0.03,0.1-0.05,0.19-0.08,0.28c-0.03,0.09-0.04,0.15-0.06,0.19l-0.25,0.82H104.86z"/>
		<path class="st1" d="M110.81,53.9c0,0.4-0.08,0.73-0.23,0.99c-0.15,0.27-0.37,0.47-0.66,0.6c-0.29,0.13-0.63,0.2-1.04,0.2h-1
			v-3.52h1.11c0.37,0,0.69,0.07,0.96,0.2c0.27,0.13,0.48,0.32,0.63,0.58C110.74,53.2,110.81,53.52,110.81,53.9z M110.03,53.91
			c0-0.26-0.04-0.47-0.11-0.64c-0.08-0.17-0.19-0.29-0.34-0.37c-0.15-0.08-0.33-0.12-0.55-0.12h-0.4v2.29h0.32
			c0.36,0,0.64-0.1,0.81-0.29C109.95,54.59,110.03,54.3,110.03,53.91z"/>
		<path class="st1" d="M113.73,55.69l-0.26-0.84h-1.28l-0.26,0.84h-0.81l1.24-3.54h0.91l1.25,3.54H113.73z M113.29,54.23l-0.26-0.82
			c-0.02-0.05-0.04-0.12-0.06-0.21c-0.03-0.09-0.05-0.17-0.08-0.26c-0.03-0.09-0.05-0.17-0.06-0.23c-0.02,0.07-0.04,0.15-0.07,0.24
			c-0.03,0.1-0.05,0.19-0.08,0.28c-0.03,0.09-0.04,0.15-0.06,0.19l-0.25,0.82H113.29z"/>
		<path class="st1" d="M117.81,52.74c-0.14,0-0.27,0.03-0.38,0.08c-0.11,0.06-0.2,0.14-0.28,0.24c-0.07,0.1-0.13,0.23-0.17,0.38
			c-0.04,0.15-0.06,0.31-0.06,0.5c0,0.25,0.03,0.46,0.09,0.64s0.16,0.31,0.29,0.4c0.13,0.09,0.3,0.14,0.5,0.14
			c0.14,0,0.29-0.02,0.43-0.05c0.14-0.03,0.3-0.08,0.47-0.14v0.63c-0.16,0.06-0.31,0.11-0.46,0.14c-0.15,0.03-0.32,0.04-0.51,0.04
			c-0.36,0-0.66-0.08-0.9-0.23c-0.23-0.15-0.41-0.36-0.52-0.63c-0.11-0.27-0.17-0.59-0.17-0.95c0-0.27,0.04-0.51,0.11-0.73
			c0.07-0.22,0.18-0.41,0.32-0.58c0.14-0.16,0.31-0.29,0.52-0.38c0.21-0.09,0.44-0.13,0.71-0.13c0.18,0,0.35,0.02,0.53,0.07
			s0.34,0.1,0.5,0.18l-0.24,0.61c-0.13-0.06-0.26-0.12-0.4-0.16C118.07,52.76,117.94,52.74,117.81,52.74z"/>
		<path class="st1" d="M122.69,53.92c0,0.27-0.03,0.52-0.1,0.74c-0.07,0.22-0.17,0.41-0.31,0.58c-0.14,0.16-0.31,0.28-0.52,0.37
			c-0.21,0.09-0.46,0.13-0.75,0.13c-0.29,0-0.54-0.04-0.75-0.13c-0.21-0.09-0.38-0.21-0.52-0.37c-0.14-0.16-0.24-0.35-0.31-0.58
			c-0.07-0.22-0.1-0.47-0.1-0.74c0-0.36,0.06-0.68,0.18-0.95c0.12-0.27,0.3-0.48,0.55-0.63c0.25-0.15,0.57-0.22,0.95-0.22
			c0.38,0,0.7,0.07,0.94,0.22c0.25,0.15,0.43,0.36,0.55,0.63C122.63,53.24,122.69,53.56,122.69,53.92z M120.12,53.92
			c0,0.25,0.03,0.46,0.09,0.64c0.06,0.18,0.16,0.31,0.29,0.41c0.13,0.1,0.3,0.14,0.51,0.14c0.21,0,0.38-0.05,0.52-0.14
			c0.13-0.1,0.23-0.23,0.29-0.41c0.06-0.18,0.09-0.39,0.09-0.64c0-0.37-0.07-0.66-0.21-0.87c-0.14-0.21-0.37-0.32-0.68-0.32
			c-0.21,0-0.38,0.05-0.51,0.14c-0.13,0.1-0.23,0.23-0.29,0.41C120.15,53.46,120.12,53.68,120.12,53.92z"/>
		<path class="st1" d="M126.58,55.69h-0.95l-1.53-2.67h-0.02c0.01,0.11,0.01,0.22,0.02,0.33c0,0.11,0.01,0.22,0.01,0.34
			c0,0.11,0.01,0.22,0.01,0.34v1.66h-0.67v-3.52h0.94l1.53,2.64h0.02c0-0.11-0.01-0.22-0.01-0.33c0-0.11-0.01-0.22-0.01-0.32
			c0-0.11-0.01-0.22-0.01-0.32v-1.67h0.67V55.69z"/>
		<path class="st1" d="M130.69,53.92c0,0.26-0.03,0.5-0.09,0.72c-0.06,0.22-0.16,0.41-0.29,0.57c-0.13,0.16-0.29,0.28-0.49,0.37
			l0.85,0.95h-0.96l-0.65-0.79c-0.01,0-0.02,0-0.03,0c-0.01,0-0.02,0-0.03,0c-0.29,0-0.54-0.04-0.75-0.13
			c-0.21-0.09-0.38-0.21-0.52-0.37c-0.14-0.16-0.24-0.35-0.31-0.58c-0.07-0.22-0.1-0.47-0.1-0.74c0-0.36,0.06-0.68,0.18-0.95
			c0.12-0.27,0.3-0.48,0.55-0.63c0.25-0.15,0.57-0.22,0.95-0.22c0.38,0,0.7,0.07,0.94,0.22c0.25,0.15,0.43,0.36,0.55,0.63
			C130.63,53.24,130.69,53.56,130.69,53.92z M128.12,53.92c0,0.25,0.03,0.46,0.09,0.64c0.06,0.18,0.16,0.31,0.29,0.41
			c0.13,0.1,0.3,0.14,0.51,0.14c0.21,0,0.38-0.05,0.52-0.14c0.13-0.1,0.23-0.23,0.29-0.41c0.06-0.18,0.09-0.39,0.09-0.64
			c0-0.37-0.07-0.66-0.21-0.87c-0.14-0.21-0.37-0.32-0.68-0.32c-0.21,0-0.38,0.05-0.51,0.14c-0.13,0.1-0.23,0.23-0.29,0.41
			C128.15,53.46,128.12,53.68,128.12,53.92z"/>
		<path class="st1" d="M134.32,52.17v2.28c0,0.24-0.05,0.46-0.16,0.66c-0.11,0.2-0.27,0.35-0.48,0.46
			c-0.22,0.11-0.49,0.17-0.82,0.17c-0.47,0-0.82-0.12-1.07-0.36c-0.24-0.24-0.37-0.55-0.37-0.94v-2.27h0.74v2.16
			c0,0.29,0.06,0.49,0.18,0.61c0.12,0.12,0.29,0.18,0.53,0.18c0.16,0,0.3-0.03,0.4-0.08c0.1-0.06,0.18-0.14,0.23-0.26
			c0.05-0.12,0.07-0.27,0.07-0.45v-2.15H134.32z"/>
		<path class="st1" d="M135.21,55.69v-3.52h0.75v3.52H135.21z"/>
		<path class="st1" d="M138.96,54.71c0,0.21-0.05,0.39-0.15,0.54c-0.1,0.15-0.25,0.27-0.44,0.36c-0.19,0.08-0.43,0.13-0.71,0.13
			c-0.12,0-0.24-0.01-0.36-0.02c-0.12-0.02-0.23-0.04-0.33-0.07c-0.11-0.03-0.21-0.07-0.3-0.12v-0.69c0.17,0.07,0.34,0.14,0.52,0.2
			c0.18,0.06,0.36,0.09,0.54,0.09c0.12,0,0.22-0.02,0.3-0.05c0.07-0.03,0.13-0.08,0.16-0.13c0.03-0.06,0.05-0.12,0.05-0.19
			c0-0.09-0.03-0.16-0.09-0.23c-0.06-0.06-0.14-0.12-0.24-0.18c-0.1-0.05-0.22-0.11-0.35-0.18c-0.08-0.04-0.17-0.09-0.27-0.14
			c-0.1-0.06-0.19-0.12-0.27-0.2c-0.09-0.08-0.16-0.18-0.21-0.29c-0.06-0.12-0.08-0.25-0.08-0.41c0-0.21,0.05-0.39,0.14-0.54
			c0.1-0.15,0.23-0.26,0.41-0.34c0.18-0.08,0.39-0.12,0.64-0.12c0.18,0,0.36,0.02,0.52,0.06c0.17,0.04,0.34,0.1,0.52,0.18
			l-0.24,0.58c-0.16-0.07-0.31-0.12-0.44-0.15s-0.26-0.05-0.39-0.05c-0.09,0-0.17,0.01-0.24,0.04c-0.07,0.03-0.12,0.07-0.15,0.13
			c-0.03,0.05-0.05,0.12-0.05,0.19c0,0.08,0.02,0.15,0.07,0.21c0.05,0.06,0.12,0.11,0.22,0.17c0.1,0.05,0.22,0.11,0.37,0.19
			c0.18,0.09,0.33,0.17,0.46,0.27c0.13,0.09,0.23,0.2,0.3,0.33C138.92,54.37,138.96,54.53,138.96,54.71z"/>
		<path class="st1" d="M140.98,55.69h-0.75v-2.9h-0.96v-0.62h2.66v0.62h-0.96V55.69z"/>
		<path class="st1" d="M144.67,55.69l-0.26-0.84h-1.28l-0.26,0.84h-0.81l1.24-3.54h0.91l1.25,3.54H144.67z M144.24,54.23l-0.26-0.82
			c-0.02-0.05-0.04-0.12-0.06-0.21c-0.03-0.09-0.05-0.17-0.08-0.26c-0.03-0.09-0.05-0.17-0.06-0.23c-0.02,0.07-0.04,0.15-0.07,0.24
			c-0.03,0.1-0.05,0.19-0.08,0.28c-0.03,0.09-0.04,0.15-0.06,0.19l-0.25,0.82H144.24z"/>
	</g>
	<g>
		<path class="st2" d="M154.74,36.5c0,2.12,0,4.24,0,6.36c0,0.17,0,0.34-0.02,0.46c-0.02,0.12-0.06,0.19-0.18,0.22
			c-0.12,0.04-0.32,0.04-0.51,0.04c-1.17,0-2.33,0-3.5,0c-0.2-0.03-0.39-0.06-0.53-0.11c-0.14-0.05-0.22-0.12-0.27-0.24
			c-0.04-0.12-0.04-0.29-0.04-0.46c0-6.63,0-13.25-0.01-16.6c-0.01-3.35-0.03-3.41-0.03-3.7c-0.01-0.29,0-0.8,0.15-1.16
			c0.15-0.36,0.45-0.56,0.8-0.67c0.35-0.11,0.74-0.11,1.12-0.12c2.58,0,5.15,0,7.72,0c0.44,0,0.87,0,1.22,0.07
			c0.35,0.07,0.62,0.21,0.78,0.37c0.16,0.15,0.22,0.32,0.25,0.51c0.03,0.19,0.03,0.4,0.03,2.58c0,2.17-0.01,6.31-0.01,8.55
			c0,2.24,0,2.6-0.14,2.89c-0.13,0.29-0.4,0.51-0.67,0.65c-0.27,0.14-0.53,0.2-1.56,0.24C158.3,36.44,156.52,36.47,154.74,36.5
			L154.74,36.5z M154.91,22.2h1.76c0.09,0,0.16,0.07,0.16,0.16V34.7c0,0.09-0.07,0.16-0.16,0.16h-1.76c-0.09,0-0.16-0.07-0.16-0.16
			V22.36C154.75,22.27,154.82,22.2,154.91,22.2L154.91,22.2z M126.73,32.35c0-1.99,0-5.31,0-8.63c-0.02-0.5-0.04-1-0.02-1.36
			c0.02-0.37,0.09-0.61,0.22-0.83c0.13-0.23,0.32-0.44,0.54-0.61c0.22-0.16,0.45-0.27,0.7-0.34c0.24-0.07,0.49-0.1,0.79-0.12
			c0.29-0.02,0.63-0.02,0.96-0.02c4.18,0,8.37,0,12.55,0c0.5,0.01,1,0.02,1.39,0.06c0.4,0.04,0.69,0.1,0.92,0.24
			c0.23,0.14,0.39,0.34,0.5,0.55c0.11,0.21,0.16,0.43,0.19,0.61c0.03,0.18,0.04,0.32,0.05,2.33c0.01,2.02,0.01,5.91,0.01,9.8
			c0.01,0.48,0.02,0.95,0.03,1.29c0.01,0.34,0.02,0.53-0.07,0.66c-0.09,0.13-0.27,0.18-0.56,0.21c-0.29,0.03-0.69,0.03-1.26,0.03
			c-0.56,0-1.29,0-1.81-0.01c-0.52-0.01-0.83-0.03-1.02-0.1c-0.19-0.07-0.25-0.19-0.29-0.32c-0.03-0.13-0.03-0.27-0.03-0.41
			c0-0.14,0-0.28,0-0.42c-0.01-4.22-0.01-8.44-0.02-12.66c-0.61,0-1.23,0.01-1.84,0.01c0,4.41,0.01,8.82,0.01,11.11
			c0,2.29,0,2.45-0.03,2.57c-0.03,0.12-0.1,0.19-0.19,0.23c-0.1,0.04-0.23,0.04-0.89,0.04c-0.67,0-1.87,0-3.07,0
			c-0.21,0-0.41,0-0.54-0.02c-0.13-0.02-0.18-0.07-0.22-0.15c-0.03-0.09-0.04-0.22-0.05-0.35c0-4.48,0-8.95,0-13.43
			c-0.63,0-1.26,0-1.89,0c0,4.22,0,8.43,0,12.65c0,0.3,0,0.61-0.02,0.82c-0.02,0.21-0.05,0.33-0.17,0.4
			c-0.13,0.07-0.34,0.09-0.96,0.1c-0.62,0.01-1.64,0.01-2.65,0.01c-0.27-0.01-0.54-0.02-0.73-0.04c-0.19-0.02-0.3-0.04-0.37-0.13
			c-0.08-0.09-0.12-0.25-0.13-0.67C126.71,35.02,126.73,34.34,126.73,32.35L126.73,32.35z M103.82,32.35c0-1.99,0-5.31,0-8.63
			c-0.02-0.5-0.04-1-0.02-1.36c0.02-0.37,0.09-0.61,0.22-0.83c0.13-0.23,0.32-0.44,0.54-0.61c0.22-0.16,0.46-0.27,0.7-0.34
			c0.24-0.07,0.49-0.1,0.78-0.12c0.29-0.02,0.63-0.02,0.97-0.02c4.18,0,8.37,0,12.55,0c0.5,0.01,1,0.02,1.39,0.06
			c0.4,0.04,0.69,0.1,0.92,0.24c0.23,0.14,0.39,0.34,0.5,0.55c0.11,0.21,0.16,0.43,0.19,0.61c0.03,0.18,0.04,0.32,0.05,2.33
			c0.01,2.02,0.01,5.91,0.01,9.8c0.01,0.48,0.02,0.95,0.03,1.29c0.01,0.34,0.02,0.53-0.06,0.66c-0.09,0.13-0.27,0.18-0.56,0.21
			c-0.29,0.03-0.69,0.03-1.26,0.03c-0.56,0-1.29,0-1.81-0.01c-0.52-0.01-0.83-0.03-1.02-0.1c-0.19-0.07-0.26-0.19-0.29-0.32
			c-0.03-0.13-0.03-0.27-0.03-0.41c0-0.14,0-0.28,0-0.42c-0.01-4.22-0.01-8.44-0.02-12.66c-0.61,0-1.23,0.01-1.85,0.01
			c0,4.41,0.01,8.82,0.01,11.11c0,2.29,0,2.45-0.03,2.57c-0.03,0.12-0.1,0.19-0.19,0.23c-0.1,0.04-0.23,0.04-0.89,0.04
			c-0.67,0-1.87,0-3.07,0c-0.21,0-0.41,0-0.54-0.02c-0.13-0.02-0.18-0.07-0.22-0.15c-0.03-0.09-0.04-0.22-0.05-0.35
			c0-4.48,0-8.95,0-13.43c-0.63,0-1.26,0-1.88,0c0,4.22,0,8.43,0,12.65c0,0.3,0,0.61-0.02,0.82c-0.02,0.21-0.05,0.33-0.17,0.4
			c-0.12,0.07-0.34,0.09-0.96,0.1c-0.62,0.01-1.64,0.01-2.65,0.01c-0.27-0.01-0.54-0.02-0.73-0.04c-0.19-0.02-0.3-0.04-0.37-0.13
			c-0.08-0.09-0.12-0.25-0.13-0.67C103.81,35.02,103.82,34.34,103.82,32.35L103.82,32.35z M78.65,22.51c0,1.35,0,2.69,0,4.04
			c0,0.53,0,1.06,0.04,1.44c0.04,0.38,0.12,0.62,0.28,0.82c0.16,0.2,0.41,0.37,0.93,0.45c0.52,0.08,1.32,0.07,2.11,0.05
			c0.79-0.01,1.58-0.03,2.12-0.03c0.54,0,0.82,0.01,1.02,0.1c0.2,0.09,0.32,0.26,0.38,0.55c0.06,0.29,0.07,0.7,0.07,1.51
			c0,0.81,0,2.01,0,3.22c-0.67,0-1.35,0-2.02,0c0-0.98,0-1.97,0-2.95c0.01-0.28,0.01-0.55-0.01-0.72c-0.02-0.17-0.06-0.23-0.2-0.27
			c-0.14-0.03-0.39-0.03-1.1-0.03c-0.7,0-1.85,0.01-2.54,0.02c-0.69,0.01-0.92,0.04-1.04,0.2c-0.12,0.15-0.12,0.44-0.11,1.14
			c0.01,0.71,0.02,1.83,0.04,2.5c0.02,0.67,0.05,0.89,0.19,1.09c0.14,0.2,0.4,0.38,0.67,0.48c0.27,0.1,0.56,0.11,1.99,0.1
			c1.44-0.01,4.02-0.03,5.52-0.04c1.49-0.01,1.9-0.01,2.21-0.05c0.31-0.03,0.53-0.1,0.71-0.19c0.17-0.1,0.3-0.23,0.38-0.36
			c0.08-0.14,0.1-0.28,0.13-1.18c0.03-0.9,0.05-2.56,0.06-3.71c0.01-1.16,0.01-1.81-0.03-2.22c-0.04-0.4-0.13-0.56-0.27-0.67
			c-0.14-0.12-0.34-0.2-1.34-0.23c-1-0.04-2.82-0.02-3.78-0.05c-0.96-0.02-1.08-0.07-1.16-0.15c-0.08-0.08-0.12-0.18-0.14-0.49
			c-0.02-0.31-0.03-0.83-0.04-1.6c-0.02-0.76-0.04-1.77-0.05-2.3c-0.01-0.53,0.01-0.58,0.03-0.63c0.03-0.05,0.07-0.1,0.37-0.13
			c0.3-0.03,0.85-0.04,1.14-0.02c0.29,0.02,0.32,0.07,0.33,0.14c0.01,0.07,0.01,0.16,0.02,0.81c0.01,0.64,0.02,1.84,0.03,3.03
			c1.64,0,3.29,0,4.93,0c0-1.25,0-2.51-0.01-3.3c-0.01-0.79-0.04-1.11-0.17-1.39c-0.14-0.28-0.38-0.51-0.7-0.67
			c-0.32-0.16-0.71-0.25-0.96-0.3c-0.25-0.05-0.37-0.05-0.49-0.05c-2.23,0-4.45,0-6.68,0c-0.56,0.01-1.11,0.03-1.54,0.11
			c-0.43,0.08-0.72,0.24-0.92,0.43c-0.2,0.19-0.3,0.41-0.35,0.66C78.66,21.95,78.65,22.23,78.65,22.51L78.65,22.51z M95.23,13.56
			h3.82c0.36,0,0.65,0.29,0.65,0.65v3.02c0,0.36-0.29,0.65-0.65,0.65h-3.82c-0.36,0-0.65-0.29-0.65-0.65v-3.02
			C94.58,13.85,94.87,13.56,95.23,13.56L95.23,13.56z M95.23,20.5h3.82c0.36,0,0.65,0.29,0.65,0.65v14.43
			c0,0.36-0.29,0.65-0.65,0.65h-3.82c-0.36,0-0.65-0.29-0.65-0.65V21.15C94.58,20.79,94.87,20.5,95.23,20.5L95.23,20.5z M95.23,20.5
			"/>
		<g>
			<path class="st1" d="M31.03,26.02c-0.5-1-0.77-1.88-0.89-2.64c-0.02-0.13-0.04-0.25-0.05-0.38c0-0.02-0.01-0.05-0.01-0.07
				c-0.07-0.66-0.05-1.32,0.09-1.99c0.28-1.38,0.86-2.57,1.98-3.54c1.15-0.96,2.25-1.66,4.37-2.01c3.84-0.61,14.4-1.35,24.3-1.82
				c-8.26-0.15-16.85-0.15-22.54,0.01c-2.01,0.06-3.65,0.13-4.79,0.23c-0.48,0.06-0.91,0.11-1.28,0.17
				c-2.11,0.35-3.2,1.04-4.35,1.99c-0.88,0.76-1.42,1.66-1.74,2.67l0,0c0,0.01-0.01,0.03-0.01,0.04c-0.11,0.39-0.74,2.47,1.11,5.51
				c1.24,2.04,3.35,3.73,5.97,4.68C32.29,28.02,31.55,27.05,31.03,26.02z"/>
			<path class="st1" d="M43.5,15.97c-2.01,0.06-3.65,0.13-4.79,0.23c-0.48,0.06-0.91,0.11-1.28,0.17c-2.11,0.35-3.2,1.04-4.35,1.99
				c-0.88,0.76-1.42,1.66-1.74,2.67l0,0c0,0.01-0.01,0.03-0.01,0.04c-0.11,0.39-0.74,2.47,1.11,5.51c1.24,2.04,3.35,3.73,5.97,4.68
				c-0.91-0.86-1.64-1.83-2.16-2.86c-0.5-1-0.77-1.88-0.89-2.64c-0.02-0.13-0.04-0.25-0.05-0.38c0-0.02-0.01-0.05-0.01-0.07
				c-0.07-0.66-0.05-1.32,0.09-1.99c0.28-1.38,0.86-2.57,1.98-3.54c1.15-0.96,2.25-1.66,4.37-2.01c3.84-0.61,14.4-1.35,24.3-1.82
				C57.78,15.81,49.19,15.81,43.5,15.97z"/>
			<path class="st1" d="M48.71,18.35c-2.01,0.06-3.65,0.13-4.79,0.23c-0.48,0.06-0.91,0.11-1.28,0.17c-2.11,0.35-3.2,1.04-4.35,1.99
				c-0.88,0.76-1.42,1.66-1.74,2.67l0,0c0,0.01-0.01,0.03-0.01,0.04c-0.11,0.39-0.74,2.47,1.11,5.51c1.24,2.04,3.35,3.73,5.97,4.68
				c-0.91-0.86-1.64-1.83-2.16-2.86c-0.5-1-0.77-1.88-0.89-2.64c-0.02-0.13-0.04-0.25-0.05-0.38c0-0.02-0.01-0.05-0.01-0.07
				c-0.07-0.66-0.05-1.32,0.09-1.99c0.28-1.38,0.86-2.57,1.98-3.54c1.15-0.96,2.25-1.66,4.37-2.01c3.84-0.61,14.4-1.35,24.3-1.82
				C63,18.2,54.41,18.19,48.71,18.35z"/>
			<path class="st1" d="M48.88,31.17l-0.06-0.04c-0.09-0.06-0.2-0.09-0.3-0.08c-0.15,0.01-0.3,0.08-0.39,0.22l-0.73,1.07
				c-0.15,0.23-0.09,0.54,0.13,0.69l0.06,0.04c0.09,0.06,0.2,0.09,0.3,0.08c0.15-0.01,0.3-0.08,0.39-0.22l0.73-1.07
				C49.16,31.64,49.1,31.33,48.88,31.17z"/>
			<path class="st1" d="M49.95,32.29l-0.14-0.1c-0.08-0.06-0.18-0.08-0.27-0.08c-0.14,0.01-0.27,0.07-0.35,0.2l-0.49,0.73
				c-0.14,0.2-0.08,0.48,0.12,0.62l0.14,0.1c0.08,0.06,0.18,0.08,0.27,0.08c0.14-0.01,0.27-0.07,0.35-0.2l0.49-0.73
				C50.2,32.71,50.15,32.43,49.95,32.29z"/>
			<path class="st1" d="M46.25,30.13l-0.22-0.15c-0.07-0.05-0.16-0.07-0.24-0.07c-0.12,0.01-0.24,0.07-0.31,0.18l-0.33,0.49
				c-0.12,0.18-0.07,0.43,0.11,0.56l0.22,0.15c0.07,0.05,0.16,0.07,0.24,0.07c0.12-0.01,0.24-0.07,0.31-0.18l0.33-0.49
				C46.49,30.5,46.44,30.25,46.25,30.13z"/>
			<path class="st1" d="M47.83,31.07c0.02-0.03,0.04-0.06,0.07-0.09l0.07-0.1c0.16-0.24,0.11-0.56-0.12-0.73
				c-0.1-0.08-0.23-0.11-0.34-0.11c-0.16,0.01-0.32,0.09-0.42,0.23l-0.89,1.31c-0.16,0.24-0.1,0.58,0.14,0.74
				c0.1,0.07,0.21,0.1,0.32,0.09c0.15-0.01,0.29-0.07,0.39-0.19c0.01-0.03,0.03-0.05,0.05-0.08l0.42-0.62L47.83,31.07z"/>
			<path class="st1" d="M52.99,22.92c0.85,0.41,1.61,0.92,2.27,1.49l-1.05,0.82c-0.13,0.04-0.27,0.08-0.29,0.09
				c-0.08,0.01-0.15,0.02-0.23,0.02c-0.26,0.01-0.52-0.03-0.77-0.1c-0.58-0.17-1.3-0.19-1.93-0.16c-0.47,0.02-0.9,0.07-1.19,0.11
				c-0.24,0.03-0.48,0.06-0.72,0.14c-0.22,0.08-0.41,0.24-0.55,0.41c-0.04,0.05-0.08,0.09-0.12,0.14c-0.15,0.19-0.29,0.4-0.42,0.61
				c-0.19,0.3-0.82,1.14-0.32,1.42c0.09,0.05,0.19,0.07,0.29,0.06c0.03,0,0.07-0.01,0.1-0.01c0.38-0.07,0.72-0.32,0.98-0.6
				c0.13-0.14,0.24-0.29,0.33-0.44c0.02-0.03,0.08-0.19,0.11-0.2l0.65-0.2l0.22-0.07c0.01,0,0.01,0,0.02,0c0.01,0,0.02,0,0.03,0.01
				c0.35,0.17,3.4,1.66,5.17,3.05c0,0,0,0,0,0c0.02,0.02,0.06,0.02,0.08,0l0.83-0.74c0,0,0,0,0-0.01l1.22-0.95
				c0.54,1.45,0.55,2.96-0.09,4.29c-0.94,1.95-3.1,3.11-5.76,3.11c-1.44,0-2.93-0.35-4.31-1.02c-2.98-1.44-4.88-4.05-5.09-6.56
				l2.1,1.72c0,0.01,0,0.02,0.01,0.02l0.55,0.56c0.01,0.01,0.02,0.01,0.03,0.02l0.05-0.07c0.07-0.1,0.16-0.18,0.26-0.24
				c0.1-0.06,0.21-0.09,0.33-0.09c0.08,0,0.16,0.01,0.23,0.03c0.08,0.02,0.15,0.06,0.22,0.1l0.22,0.15
				c0.08,0.06,0.15,0.13,0.21,0.21c0.01,0.02,0.03,0.04,0.04,0.06c0.01,0.03,0.05,0.03,0.07,0l0.03-0.04
				c0.08-0.12,0.19-0.21,0.31-0.28c0.12-0.06,0.25-0.1,0.39-0.11c0.09,0,0.19,0.01,0.28,0.03c0.09,0.03,0.18,0.07,0.26,0.12
				c0.1,0.07,0.18,0.15,0.25,0.25c0.06,0.1,0.11,0.2,0.13,0.32c0.02,0.08,0.02,0.16,0.01,0.24c0,0.03,0.02,0.06,0.06,0.06
				c0.01,0,0.02,0,0.03,0c0.09,0,0.18,0.01,0.26,0.03c0.09,0.02,0.17,0.06,0.25,0.12l0.06,0.04c0.28,0.19,0.41,0.51,0.37,0.81
				c0,0.04,0.03,0.07,0.07,0.07c0,0,0,0,0.01,0c0.08,0,0.17,0.01,0.25,0.03c0.08,0.02,0.16,0.06,0.23,0.11l0.14,0.1
				c0.37,0.25,0.46,0.74,0.22,1.11l-0.06,0.1c-0.03,0.04-0.02,0.1,0.02,0.13c0.01,0.01,0.02,0.01,0.03,0.02
				c0.16,0.05,1.7,0.49,2.09-0.25c0.03-0.05,0-0.11-0.05-0.13l-1.44-0.63c-0.09-0.04-0.14-0.14-0.11-0.23
				c0.02-0.07,0.07-0.13,0.21-0.14c0.01,0,0.03,0,0.04,0.01l1.49,0.69c0.17,0.08,0.35,0.1,0.54,0.07c0.22-0.04,0.46-0.16,0.47-0.53
				c0-0.1-0.05-0.18-0.14-0.23l-1.86-0.97c-0.07-0.04-0.11-0.12-0.1-0.2c0.01-0.08,0.05-0.16,0.16-0.16c0.04,0,0.07,0.01,0.11,0.02
				l1.96,1.02c0.1,0.05,0.21,0.07,0.32,0.06c0.19-0.02,0.47-0.09,0.56-0.34c0.09-0.22-0.01-0.48-0.22-0.59l-2.15-1.16
				c-0.06-0.03-0.1-0.1-0.1-0.17c0-0.09,0.04-0.2,0.24-0.18c0.02,0,0.05,0.01,0.07,0.02l2.43,1.3c0.18,0.1,0.4,0.11,0.58,0.02
				c0.14-0.07,0.26-0.19,0.25-0.4c0-0.19-0.1-0.36-0.25-0.47l-1.22-0.84c-0.44-0.28-0.99-0.6-1.63-0.95
				c-0.9-0.49-1.75-0.92-2.15-1.11c-0.06-0.03-0.13-0.04-0.2-0.02L49.82,27c-0.06,0.02-0.12,0.06-0.15,0.12l0,0
				c-0.11,0.18-0.24,0.35-0.37,0.5c-0.16,0.17-0.33,0.32-0.51,0.44c-0.21,0.14-0.44,0.23-0.66,0.27c-0.05,0.01-0.1,0.02-0.15,0.02
				c-0.18,0.01-0.35-0.03-0.49-0.11c-0.18-0.1-0.3-0.26-0.34-0.45c-0.05-0.22-0.01-0.49,0.14-0.8c0.11-0.22,0.24-0.42,0.34-0.57
				c0.02-0.04,0.04-0.07,0.06-0.09c0.07-0.11,0.15-0.23,0.23-0.35c0.02-0.03,0-0.08-0.04-0.07c-0.2,0.03-0.65,0.03-1.37-0.37
				l-2.45-2.01c1.13-1.03,2.75-1.61,4.63-1.61l0-0.85c0,0,0,0,0,0c-2.87,0-5.41,1.28-6.53,3.59c-1.71,3.54,0.53,8.16,5.01,10.33
				c1.55,0.75,3.16,1.11,4.68,1.11c2.87,0,5.41-1.28,6.53-3.59c1.71-3.54-0.53-8.16-5.01-10.33c-1.55-0.75-3.16-1.11-4.68-1.11v0.85
				C50.12,21.9,51.61,22.25,52.99,22.92z"/>
			<path class="st1" d="M73.3,32.93c-1.24-2.04-3.35-3.73-5.97-4.68c0.91,0.86,1.64,1.83,2.16,2.86c0.5,1,0.77,1.88,0.89,2.64
				c0.02,0.13,0.04,0.25,0.05,0.38c0,0.02,0.01,0.05,0.01,0.07c0.07,0.66,0.05,1.32-0.09,1.99c-0.28,1.38-0.86,2.57-1.98,3.54
				c-1.15,0.96-2.25,1.66-4.37,2.01c-3.84,0.61-14.4,1.35-24.3,1.82c8.26,0.15,16.85,0.15,22.54-0.01c2.01-0.06,3.65-0.13,4.79-0.23
				c0.48-0.06,0.91-0.11,1.28-0.17c2.11-0.35,3.2-1.04,4.35-1.99c0.88-0.76,1.42-1.66,1.74-2.67l0,0c0-0.01,0.01-0.03,0.01-0.04
				C74.53,38.04,75.15,35.97,73.3,32.93z"/>
			<path class="st1" d="M57.03,41.16c2.01-0.06,3.65-0.13,4.79-0.23c0.48-0.06,0.91-0.11,1.28-0.17c2.11-0.35,3.2-1.04,4.35-1.99
				c0.88-0.76,1.42-1.66,1.74-2.67l0,0c0-0.01,0.01-0.03,0.01-0.04c0.11-0.39,0.74-2.47-1.11-5.51c-1.24-2.04-3.35-3.73-5.97-4.68
				c0.91,0.86,1.64,1.83,2.16,2.86c0.5,1,0.77,1.88,0.89,2.64c0.02,0.13,0.04,0.25,0.05,0.38c0,0.02,0.01,0.05,0.01,0.07
				c0.07,0.66,0.05,1.32-0.09,1.99c-0.28,1.38-0.86,2.57-1.98,3.54c-1.15,0.96-2.25,1.66-4.37,2.01c-3.84,0.61-14.4,1.35-24.3,1.82
				C42.75,41.31,51.34,41.32,57.03,41.16z"/>
			<path class="st1" d="M51.82,38.77c2.01-0.06,3.65-0.13,4.79-0.23c0.48-0.06,0.91-0.11,1.28-0.17c2.11-0.35,3.2-1.04,4.35-1.99
				c0.88-0.76,1.42-1.66,1.74-2.67l0,0c0-0.01,0.01-0.03,0.01-0.04c0.11-0.39,0.74-2.47-1.11-5.51c-1.24-2.04-3.35-3.73-5.97-4.68
				c0.91,0.86,1.64,1.83,2.16,2.86c0.5,1,0.77,1.88,0.89,2.64c0.02,0.13,0.04,0.25,0.05,0.38c0,0.02,0.01,0.05,0.01,0.07
				c0.07,0.66,0.05,1.32-0.09,1.99c-0.28,1.38-0.86,2.57-1.98,3.54c-1.15,0.96-2.25,1.66-4.37,2.01c-3.84,0.61-14.4,1.35-24.3,1.82
				C37.53,38.93,46.13,38.93,51.82,38.77z"/>
		</g>
	</g>
</g>
<path class="st1" d="M231.89,79.81h-47.18c-2.55,0-4.62-2.07-4.62-4.62V9.2c0-2.55,2.07-4.62,4.62-4.62h47.18
	c2.55,0,4.62,2.07,4.62,4.62v65.99C236.51,77.74,234.44,79.81,231.89,79.81z"/>
<path class="st1" d="M11.04,81.28h162.35c2.03,0,3.67-1.64,3.67-3.67V65.54c0-2.03-1.64-3.67-3.67-3.67H11.04
	c-2.03,0-3.67,1.64-3.67,3.67v12.07C7.37,79.64,9.01,81.28,11.04,81.28z"/>
<path class="st1" d="M11.04,102.6h162.35c2.03,0,3.67-1.64,3.67-3.67V86.86c0-2.03-1.64-3.67-3.67-3.67H11.04
	c-2.03,0-3.67,1.64-3.67,3.67v12.07C7.37,100.96,9.01,102.6,11.04,102.6z"/>
<path class="st1" d="M182.21,102.6h52.18c1.17,0,2.12-0.95,2.12-2.12V85.31c0-1.17-0.95-2.12-2.12-2.12h-52.18
	c-1.17,0-2.12,0.95-2.12,2.12v15.18C180.09,101.66,181.04,102.6,182.21,102.6z"/>
<path class="st1" d="M10.36,123.93h107.08c1.65,0,3-1.34,3-3v-13.42c0-1.65-1.34-3-3-3H10.36c-1.65,0-3,1.34-3,3v13.42
	C7.37,122.59,8.71,123.93,10.36,123.93z"/>
<path class="st1" d="M9.75,145.25h68.82c1.31,0,2.38-1.06,2.38-2.38v-14.66c0-1.31-1.06-2.38-2.38-2.38H9.75
	c-1.31,0-2.38,1.06-2.38,2.38v14.66C7.37,144.19,8.43,145.25,9.75,145.25z"/>
<path class="st1" d="M87.59,145.25h68.82c1.31,0,2.38-1.06,2.38-2.38v-14.66c0-1.31-1.06-2.38-2.38-2.38H87.59
	c-1.31,0-2.38,1.06-2.38,2.38v14.66C85.21,144.19,86.27,145.25,87.59,145.25z"/>
<g>
	<path d="M85.62,66.91v-3.51h0.93l0.73,1.29c0.21,0.37,0.42,0.81,0.57,1.2h0.02c-0.05-0.46-0.07-0.94-0.07-1.46v-1.03h0.73v3.51
		h-0.83l-0.75-1.35c-0.21-0.38-0.44-0.83-0.61-1.24l-0.02,0c0.02,0.46,0.03,0.96,0.03,1.53v1.06H85.62z"/>
	<path d="M92.42,65.12c0,1.15-0.7,1.85-1.72,1.85c-1.04,0-1.65-0.79-1.65-1.79c0-1.05,0.67-1.84,1.71-1.84
		C91.83,63.35,92.42,64.16,92.42,65.12z M89.89,65.17c0,0.69,0.32,1.17,0.85,1.17c0.54,0,0.84-0.51,0.84-1.19
		c0-0.63-0.3-1.17-0.85-1.17C90.2,63.98,89.89,64.49,89.89,65.17z"/>
	<path d="M95.9,65.57c-0.02-0.42-0.03-0.93-0.03-1.44h-0.02c-0.11,0.45-0.25,0.95-0.39,1.36l-0.43,1.37h-0.62l-0.37-1.36
		c-0.11-0.41-0.23-0.91-0.32-1.37h-0.01c-0.02,0.47-0.04,1.01-0.06,1.45l-0.06,1.33h-0.73l0.22-3.51h1.06l0.34,1.17
		c0.11,0.41,0.22,0.84,0.3,1.25h0.02c0.1-0.41,0.22-0.87,0.33-1.26l0.37-1.17h1.04l0.19,3.51h-0.78L95.9,65.57z"/>
	<path d="M99.42,65.43h-1.29v0.83h1.44v0.65h-2.24v-3.51h2.16v0.65h-1.37v0.73h1.29V65.43z"/>
</g>
<g>
	<path d="M87,88.24c-0.15,0.07-0.47,0.15-0.9,0.15c-1.21,0-1.84-0.75-1.84-1.75c0-1.2,0.85-1.86,1.91-1.86
		c0.41,0,0.72,0.08,0.86,0.16l-0.16,0.63c-0.16-0.07-0.38-0.13-0.67-0.13c-0.63,0-1.12,0.38-1.12,1.16c0,0.7,0.42,1.15,1.12,1.15
		c0.24,0,0.5-0.05,0.66-0.12L87,88.24z"/>
	<path d="M88.38,87.44l-0.25,0.9h-0.82l1.07-3.51h1.04l1.09,3.51h-0.85l-0.27-0.9H88.38z M89.27,86.85l-0.22-0.74
		c-0.06-0.21-0.12-0.47-0.18-0.68h-0.01c-0.05,0.21-0.1,0.47-0.16,0.68l-0.21,0.74H89.27z"/>
	<path d="M90.98,84.88c0.25-0.04,0.63-0.07,1.06-0.07c0.52,0,0.88,0.08,1.13,0.28c0.21,0.17,0.32,0.41,0.32,0.73
		c0,0.45-0.32,0.75-0.62,0.86v0.02c0.24,0.1,0.38,0.33,0.47,0.66c0.11,0.4,0.22,0.85,0.29,0.99h-0.81c-0.06-0.1-0.14-0.39-0.24-0.82
		c-0.09-0.44-0.24-0.56-0.57-0.56h-0.24v1.38h-0.79V84.88z M91.76,86.39h0.31c0.4,0,0.63-0.2,0.63-0.5c0-0.32-0.22-0.48-0.58-0.49
		c-0.19,0-0.3,0.02-0.36,0.03V86.39z"/>
	<path d="M96.97,88.18c-0.24,0.08-0.71,0.2-1.17,0.2c-0.64,0-1.1-0.16-1.43-0.47c-0.32-0.3-0.5-0.76-0.49-1.27
		c0.01-1.17,0.85-1.83,2-1.83c0.45,0,0.8,0.09,0.97,0.17l-0.17,0.63c-0.19-0.08-0.43-0.15-0.82-0.15c-0.66,0-1.16,0.37-1.16,1.13
		c0,0.72,0.45,1.15,1.1,1.15c0.18,0,0.33-0.02,0.39-0.05v-0.73h-0.54v-0.62h1.31V88.18z"/>
	<path d="M100.8,86.55c0,1.15-0.7,1.85-1.72,1.85c-1.04,0-1.65-0.79-1.65-1.78c0-1.05,0.67-1.84,1.71-1.84
		C100.21,84.78,100.8,85.58,100.8,86.55z M98.26,86.6c0,0.69,0.32,1.17,0.85,1.17c0.54,0,0.84-0.51,0.84-1.19
		c0-0.63-0.3-1.17-0.85-1.17C98.58,85.41,98.26,85.92,98.26,86.6z"/>
</g>
<g>
	<path d="M190.12,84.83v3.51h-0.8v-3.51H190.12z"/>
	<path d="M190.8,88.34v-3.51h0.93l0.73,1.29c0.21,0.37,0.42,0.81,0.57,1.2h0.02c-0.05-0.46-0.07-0.94-0.07-1.46v-1.02h0.73v3.51
		h-0.83l-0.75-1.35c-0.21-0.37-0.44-0.83-0.61-1.24l-0.02,0.01c0.02,0.46,0.03,0.96,0.03,1.53v1.06H190.8z"/>
	<path d="M194.42,87.52c0.21,0.11,0.54,0.22,0.88,0.22c0.36,0,0.56-0.15,0.56-0.38c0-0.22-0.17-0.34-0.59-0.49
		c-0.58-0.2-0.96-0.53-0.96-1.04c0-0.6,0.5-1.06,1.33-1.06c0.4,0,0.69,0.08,0.89,0.18l-0.18,0.64c-0.14-0.07-0.39-0.17-0.73-0.17
		s-0.51,0.16-0.51,0.34c0,0.22,0.2,0.32,0.65,0.49c0.62,0.23,0.91,0.55,0.91,1.05c0,0.59-0.45,1.09-1.42,1.09
		c-0.4,0-0.8-0.1-0.99-0.21L194.42,87.52z"/>
	<path d="M199.77,88.24c-0.15,0.07-0.47,0.15-0.9,0.15c-1.21,0-1.84-0.75-1.84-1.75c0-1.2,0.85-1.86,1.91-1.86
		c0.41,0,0.72,0.08,0.86,0.16l-0.16,0.63c-0.16-0.07-0.38-0.13-0.67-0.13c-0.63,0-1.12,0.38-1.12,1.16c0,0.7,0.42,1.15,1.12,1.15
		c0.24,0,0.5-0.05,0.66-0.12L199.77,88.24z"/>
	<path d="M200.29,84.88c0.25-0.04,0.63-0.07,1.06-0.07c0.52,0,0.88,0.08,1.13,0.28c0.21,0.17,0.32,0.41,0.32,0.73
		c0,0.45-0.32,0.75-0.62,0.86v0.02c0.24,0.1,0.38,0.33,0.47,0.66c0.11,0.4,0.22,0.85,0.29,0.99h-0.81c-0.06-0.1-0.14-0.39-0.24-0.82
		c-0.09-0.44-0.25-0.56-0.57-0.56h-0.24v1.38h-0.79V84.88z M201.08,86.39h0.31c0.4,0,0.63-0.2,0.63-0.5c0-0.32-0.22-0.48-0.58-0.49
		c-0.19,0-0.3,0.02-0.36,0.03V86.39z"/>
	<path d="M203.29,87.92c0-0.28,0.19-0.48,0.47-0.48c0.28,0,0.46,0.2,0.46,0.48c0,0.28-0.19,0.48-0.47,0.48
		C203.48,88.4,203.29,88.19,203.29,87.92z"/>
	<path d="M205.8,87.52c0.21,0.11,0.54,0.22,0.88,0.22c0.36,0,0.56-0.15,0.56-0.38c0-0.22-0.17-0.34-0.59-0.49
		c-0.58-0.2-0.96-0.53-0.96-1.04c0-0.6,0.5-1.06,1.33-1.06c0.4,0,0.69,0.08,0.89,0.18l-0.18,0.64c-0.14-0.07-0.39-0.17-0.73-0.17
		s-0.51,0.16-0.51,0.34c0,0.22,0.2,0.32,0.65,0.49c0.62,0.23,0.91,0.55,0.91,1.05c0,0.59-0.45,1.09-1.42,1.09
		c-0.4,0-0.8-0.1-0.99-0.21L205.8,87.52z"/>
	<path d="M209.38,84.83v3.51h-0.8v-3.51H209.38z"/>
	<path d="M210.06,88.34v-3.51h0.93l0.73,1.29c0.21,0.37,0.42,0.81,0.57,1.2h0.02c-0.05-0.46-0.07-0.94-0.07-1.46v-1.02h0.73v3.51
		h-0.83l-0.75-1.35c-0.21-0.37-0.44-0.83-0.61-1.24l-0.02,0.01c0.02,0.46,0.03,0.96,0.03,1.53v1.06H210.06z"/>
	<path d="M213.65,84.88c0.29-0.05,0.67-0.07,1.07-0.07c0.67,0,1.1,0.12,1.44,0.38c0.36,0.27,0.59,0.7,0.59,1.32
		c0,0.67-0.24,1.13-0.58,1.42c-0.37,0.31-0.93,0.45-1.62,0.45c-0.41,0-0.7-0.03-0.9-0.05V84.88z M214.45,87.74
		c0.07,0.02,0.18,0.02,0.28,0.02c0.72,0,1.19-0.39,1.19-1.23c0.01-0.73-0.42-1.11-1.1-1.11c-0.18,0-0.29,0.02-0.36,0.03V87.74z"/>
	<path d="M218.07,84.83v3.51h-0.8v-3.51H218.07z"/>
	<path d="M221.33,88.24c-0.15,0.07-0.47,0.15-0.9,0.15c-1.21,0-1.84-0.75-1.84-1.75c0-1.2,0.85-1.86,1.92-1.86
		c0.41,0,0.72,0.08,0.86,0.16l-0.16,0.63c-0.16-0.07-0.38-0.13-0.67-0.13c-0.63,0-1.12,0.38-1.12,1.16c0,0.7,0.42,1.15,1.12,1.15
		c0.24,0,0.5-0.05,0.66-0.12L221.33,88.24z"/>
	<path d="M222.71,87.44l-0.25,0.9h-0.82l1.07-3.51h1.04l1.09,3.51h-0.85l-0.27-0.9H222.71z M223.6,86.85l-0.22-0.74
		c-0.06-0.21-0.12-0.47-0.18-0.68h-0.01c-0.05,0.21-0.1,0.47-0.16,0.68l-0.21,0.74H223.6z"/>
	<path d="M225.31,84.83h0.8v2.84h1.39v0.67h-2.19V84.83z"/>
</g>
<g>
	<path d="M62.4,109.67c-0.15,0.07-0.47,0.15-0.9,0.15c-1.21,0-1.84-0.75-1.84-1.75c0-1.2,0.85-1.86,1.91-1.86
		c0.41,0,0.72,0.08,0.86,0.16l-0.16,0.63c-0.16-0.07-0.39-0.13-0.67-0.13c-0.63,0-1.12,0.38-1.12,1.16c0,0.7,0.42,1.15,1.12,1.15
		c0.24,0,0.5-0.05,0.66-0.12L62.4,109.67z"/>
	<path d="M62.92,106.31c0.24-0.04,0.59-0.07,1.07-0.07c0.49,0,0.84,0.09,1.07,0.28c0.22,0.18,0.37,0.47,0.37,0.81
		s-0.11,0.63-0.32,0.83c-0.27,0.25-0.67,0.37-1.14,0.37c-0.1,0-0.2-0.01-0.27-0.02v1.25h-0.79V106.31z M63.7,107.9
		c0.07,0.02,0.15,0.02,0.27,0.02c0.42,0,0.68-0.21,0.68-0.57c0-0.32-0.22-0.51-0.62-0.51c-0.16,0-0.27,0.02-0.33,0.03V107.9z"/>
	<path d="M65.94,106.26h2.14v0.65h-1.35v0.8h1.26v0.65h-1.26v1.41h-0.8V106.26z"/>
</g>
<g>
	<path d="M18.27,127.73c0.29-0.05,0.67-0.07,1.07-0.07c0.67,0,1.1,0.12,1.44,0.38c0.36,0.27,0.59,0.7,0.59,1.32
		c0,0.67-0.24,1.13-0.58,1.42c-0.37,0.31-0.93,0.45-1.62,0.45c-0.41,0-0.7-0.03-0.9-0.05V127.73z M19.07,130.59
		c0.07,0.02,0.18,0.02,0.28,0.02c0.72,0,1.19-0.39,1.19-1.23c0.01-0.73-0.42-1.11-1.1-1.11c-0.18,0-0.29,0.02-0.36,0.03V130.59z"/>
	<path d="M22.62,130.29l-0.25,0.9h-0.82l1.07-3.51h1.04l1.09,3.51H23.9l-0.27-0.9H22.62z M23.51,129.7l-0.22-0.74
		c-0.06-0.21-0.12-0.47-0.18-0.68h-0.01c-0.05,0.21-0.1,0.47-0.16,0.68l-0.21,0.74H23.51z"/>
	<path d="M25.46,128.35h-0.94v-0.67h2.7v0.67h-0.96v2.84h-0.8V128.35z"/>
	<path d="M28.08,130.29l-0.25,0.9H27l1.07-3.51h1.04l1.09,3.51h-0.85l-0.27-0.9H28.08z M28.97,129.7l-0.22-0.74
		c-0.06-0.21-0.12-0.47-0.18-0.68h-0.01c-0.05,0.21-0.1,0.47-0.16,0.68l-0.21,0.74H28.97z"/>
	<path d="M31.72,127.73c0.29-0.05,0.67-0.07,1.07-0.07c0.67,0,1.1,0.12,1.44,0.38c0.36,0.27,0.59,0.7,0.59,1.32
		c0,0.67-0.24,1.13-0.58,1.42c-0.37,0.31-0.93,0.45-1.62,0.45c-0.41,0-0.7-0.03-0.9-0.05V127.73z M32.52,130.59
		c0.07,0.02,0.18,0.02,0.28,0.02c0.72,0,1.19-0.39,1.19-1.23c0.01-0.73-0.42-1.11-1.1-1.11c-0.18,0-0.29,0.02-0.36,0.03V130.59z"/>
	<path d="M37.42,129.71h-1.29v0.83h1.44v0.65h-2.24v-3.51h2.16v0.65h-1.37v0.73h1.29V129.71z"/>
	<path d="M39.17,131.19v-3.51h0.93l0.73,1.29c0.21,0.37,0.42,0.81,0.57,1.2h0.02c-0.05-0.46-0.07-0.94-0.07-1.46v-1.03h0.73v3.51
		h-0.83l-0.75-1.35c-0.21-0.38-0.44-0.83-0.61-1.24l-0.02,0c0.02,0.46,0.03,0.96,0.03,1.53v1.06H39.17z"/>
	<path d="M43.57,130.29l-0.25,0.9H42.5l1.07-3.51h1.04l1.09,3.51h-0.85l-0.27-0.9H43.57z M44.46,129.7l-0.22-0.74
		c-0.06-0.21-0.12-0.47-0.18-0.68h-0.01c-0.05,0.21-0.1,0.47-0.16,0.68l-0.21,0.74H44.46z"/>
	<path d="M46.19,130.37c0.21,0.11,0.54,0.22,0.88,0.22c0.36,0,0.56-0.15,0.56-0.38c0-0.22-0.17-0.34-0.59-0.5
		c-0.58-0.2-0.96-0.53-0.96-1.04c0-0.6,0.5-1.06,1.33-1.06c0.4,0,0.69,0.08,0.89,0.18l-0.18,0.64c-0.14-0.07-0.39-0.17-0.73-0.17
		c-0.34,0-0.51,0.16-0.51,0.34c0,0.22,0.2,0.32,0.65,0.49c0.62,0.23,0.91,0.55,0.91,1.05c0,0.59-0.45,1.09-1.42,1.09
		c-0.4,0-0.8-0.1-0.99-0.21L46.19,130.37z"/>
	<path d="M51.55,131.09c-0.15,0.07-0.47,0.15-0.9,0.15c-1.21,0-1.84-0.75-1.84-1.75c0-1.2,0.85-1.86,1.91-1.86
		c0.41,0,0.72,0.08,0.86,0.16l-0.16,0.63c-0.16-0.07-0.39-0.13-0.67-0.13c-0.63,0-1.12,0.38-1.12,1.16c0,0.7,0.42,1.14,1.12,1.14
		c0.24,0,0.5-0.05,0.66-0.11L51.55,131.09z"/>
	<path d="M52.86,127.68v3.51h-0.8v-3.51H52.86z"/>
	<path d="M56.51,129.85c-0.02-0.42-0.03-0.93-0.03-1.44h-0.02c-0.11,0.45-0.25,0.95-0.39,1.36l-0.43,1.37h-0.62l-0.37-1.36
		c-0.11-0.41-0.23-0.91-0.32-1.37h-0.01c-0.02,0.47-0.04,1.01-0.06,1.45l-0.06,1.33h-0.73l0.22-3.51h1.06l0.34,1.17
		c0.11,0.41,0.22,0.84,0.3,1.25h0.02c0.1-0.41,0.22-0.87,0.33-1.26l0.37-1.17h1.04l0.19,3.51h-0.78L56.51,129.85z"/>
	<path d="M60.03,129.71h-1.29v0.83h1.44v0.65h-2.24v-3.51h2.16v0.65h-1.37v0.73h1.29V129.71z"/>
	<path d="M60.72,131.19v-3.51h0.93l0.73,1.29c0.21,0.37,0.42,0.81,0.57,1.2h0.02c-0.05-0.46-0.07-0.94-0.07-1.46v-1.03h0.73v3.51
		h-0.83l-0.75-1.35c-0.21-0.38-0.44-0.83-0.61-1.24l-0.02,0c0.02,0.46,0.03,0.96,0.03,1.53v1.06H60.72z"/>
	<path d="M64.98,128.35h-0.94v-0.67h2.7v0.67h-0.96v2.84h-0.8V128.35z"/>
	<path d="M70.22,129.4c0,1.15-0.7,1.85-1.72,1.85c-1.04,0-1.65-0.79-1.65-1.79c0-1.05,0.67-1.84,1.71-1.84
		C69.63,127.63,70.22,128.43,70.22,129.4z M67.68,129.45c0,0.69,0.32,1.17,0.85,1.17c0.54,0,0.84-0.51,0.84-1.19
		c0-0.63-0.3-1.17-0.85-1.17C68,128.26,67.68,128.77,67.68,129.45z"/>
</g>
<g>
	<path d="M111.55,129.85c-0.02-0.42-0.03-0.93-0.03-1.44h-0.02c-0.11,0.45-0.25,0.95-0.39,1.36l-0.43,1.37h-0.62l-0.37-1.36
		c-0.11-0.41-0.23-0.91-0.32-1.37h-0.01c-0.02,0.47-0.04,1.01-0.06,1.45l-0.06,1.33h-0.73l0.22-3.51h1.06l0.34,1.17
		c0.11,0.41,0.22,0.84,0.3,1.25h0.02c0.1-0.41,0.22-0.87,0.33-1.26l0.37-1.17h1.04l0.19,3.51h-0.78L111.55,129.85z"/>
	<path d="M113.78,130.29l-0.25,0.9h-0.82l1.07-3.51h1.04l1.09,3.51h-0.85l-0.27-0.9H113.78z M114.67,129.7l-0.22-0.74
		c-0.06-0.21-0.12-0.47-0.18-0.68h-0.01c-0.05,0.21-0.1,0.47-0.16,0.68l-0.21,0.74H114.67z"/>
	<path d="M116.62,128.35h-0.94v-0.67h2.7v0.67h-0.96v2.84h-0.8V128.35z"/>
	<path d="M118.79,127.73c0.25-0.04,0.63-0.07,1.06-0.07c0.52,0,0.88,0.08,1.13,0.28c0.21,0.17,0.32,0.41,0.32,0.73
		c0,0.45-0.32,0.75-0.62,0.86v0.02c0.24,0.1,0.38,0.33,0.47,0.66c0.11,0.4,0.22,0.85,0.29,0.99h-0.81c-0.06-0.1-0.14-0.38-0.24-0.82
		c-0.09-0.44-0.24-0.56-0.57-0.56h-0.24v1.38h-0.79V127.73z M119.58,129.24h0.31c0.4,0,0.63-0.2,0.63-0.5
		c0-0.32-0.22-0.48-0.58-0.49c-0.19,0-0.3,0.02-0.36,0.03V129.24z"/>
	<path d="M122.67,127.68v3.51h-0.8v-3.51H122.67z M123.16,126.86l-0.64,0.64h-0.63l0.44-0.64H123.16z"/>
	<path d="M125.94,131.09c-0.15,0.07-0.47,0.15-0.9,0.15c-1.21,0-1.84-0.75-1.84-1.75c0-1.2,0.85-1.86,1.92-1.86
		c0.41,0,0.72,0.08,0.86,0.16l-0.16,0.63c-0.16-0.07-0.38-0.13-0.67-0.13c-0.63,0-1.12,0.38-1.12,1.16c0,0.7,0.42,1.14,1.12,1.14
		c0.24,0,0.5-0.05,0.66-0.11L125.94,131.09z"/>
	<path d="M127.24,127.68v2.02c0,0.6,0.23,0.91,0.63,0.91c0.42,0,0.65-0.29,0.65-0.91v-2.02h0.79v1.97c0,1.08-0.55,1.6-1.46,1.6
		c-0.88,0-1.4-0.49-1.4-1.61v-1.96H127.24z"/>
	<path d="M130,127.68h0.8v2.84h1.39v0.67H130V127.68z"/>
	<path d="M133.5,130.29l-0.25,0.9h-0.82l1.07-3.51h1.04l1.09,3.51h-0.85l-0.27-0.9H133.5z M134.39,129.7l-0.22-0.74
		c-0.06-0.21-0.12-0.47-0.18-0.68h-0.01c-0.05,0.21-0.1,0.47-0.16,0.68l-0.21,0.74H134.39z"/>
</g>
<path class="st1" d="M165.43,145.25h68.82c1.31,0,2.38-1.06,2.38-2.38v-14.66c0-1.31-1.06-2.38-2.38-2.38h-68.82
	c-1.31,0-2.38,1.06-2.38,2.38v14.66C163.05,144.19,164.11,145.25,165.43,145.25z"/>
<g>
	<path d="M176.97,127.73c0.29-0.05,0.67-0.07,1.07-0.07c0.67,0,1.1,0.12,1.44,0.38c0.36,0.27,0.59,0.7,0.59,1.32
		c0,0.67-0.24,1.13-0.58,1.42c-0.37,0.31-0.93,0.45-1.62,0.45c-0.41,0-0.7-0.03-0.9-0.05V127.73z M177.76,130.59
		c0.07,0.02,0.18,0.02,0.28,0.02c0.72,0,1.19-0.39,1.19-1.23c0-0.73-0.42-1.11-1.1-1.11c-0.18,0-0.29,0.02-0.36,0.03V130.59z"/>
	<path d="M181.32,130.29l-0.25,0.9h-0.82l1.07-3.51h1.04l1.09,3.51h-0.85l-0.27-0.9H181.32z M182.21,129.7l-0.22-0.74
		c-0.06-0.21-0.12-0.47-0.18-0.68h-0.01c-0.05,0.21-0.1,0.47-0.16,0.68l-0.21,0.74H182.21z"/>
	<path d="M184.16,128.35h-0.94v-0.67h2.7v0.67h-0.96v2.84h-0.8V128.35z"/>
	<path d="M186.77,130.29l-0.25,0.9h-0.82l1.07-3.51h1.04l1.09,3.51h-0.85l-0.27-0.9H186.77z M187.67,129.7l-0.22-0.74
		c-0.06-0.21-0.12-0.47-0.18-0.68h-0.01c-0.05,0.21-0.1,0.47-0.16,0.68l-0.21,0.74H187.67z"/>
	<path d="M190.42,127.73c0.29-0.05,0.67-0.07,1.07-0.07c0.67,0,1.1,0.12,1.44,0.38c0.36,0.27,0.59,0.7,0.59,1.32
		c0,0.67-0.24,1.13-0.58,1.42c-0.37,0.31-0.93,0.45-1.62,0.45c-0.41,0-0.7-0.03-0.9-0.05V127.73z M191.21,130.59
		c0.07,0.02,0.18,0.02,0.28,0.02c0.72,0,1.19-0.39,1.19-1.23c0.01-0.73-0.42-1.11-1.1-1.11c-0.18,0-0.29,0.02-0.36,0.03V130.59z"/>
	<path d="M196.12,129.71h-1.29v0.83h1.44v0.65h-2.24v-3.51h2.17v0.65h-1.37v0.73h1.29V129.71z"/>
	<path d="M198.68,130.29l-0.25,0.9h-0.82l1.07-3.51h1.04l1.09,3.51h-0.85l-0.27-0.9H198.68z M199.57,129.7l-0.22-0.74
		c-0.06-0.21-0.12-0.47-0.18-0.68h-0.01c-0.05,0.21-0.1,0.47-0.16,0.68l-0.21,0.74H199.57z"/>
	<path d="M201.27,127.73c0.29-0.05,0.67-0.07,1.07-0.07c0.67,0,1.1,0.12,1.44,0.38c0.36,0.27,0.59,0.7,0.59,1.32
		c0,0.67-0.24,1.13-0.58,1.42c-0.37,0.31-0.93,0.45-1.62,0.45c-0.41,0-0.7-0.03-0.9-0.05V127.73z M202.07,130.59
		c0.07,0.02,0.18,0.02,0.28,0.02c0.72,0,1.19-0.39,1.19-1.23c0-0.73-0.42-1.11-1.1-1.11c-0.18,0-0.29,0.02-0.36,0.03V130.59z"/>
	<path d="M207.86,129.85c-0.02-0.42-0.03-0.93-0.03-1.44h-0.02c-0.11,0.45-0.25,0.95-0.39,1.36l-0.43,1.37h-0.62l-0.37-1.36
		c-0.11-0.41-0.23-0.91-0.32-1.37h-0.01c-0.02,0.47-0.04,1.01-0.06,1.45l-0.06,1.33h-0.73l0.22-3.51h1.06l0.34,1.17
		c0.11,0.41,0.22,0.84,0.3,1.25h0.02c0.1-0.41,0.22-0.87,0.33-1.26l0.38-1.17h1.04l0.19,3.51h-0.78L207.86,129.85z"/>
	<path d="M210.09,127.68v3.51h-0.8v-3.51H210.09z"/>
	<path d="M210.8,130.37c0.21,0.11,0.54,0.22,0.88,0.22c0.36,0,0.56-0.15,0.56-0.38c0-0.22-0.17-0.34-0.59-0.5
		c-0.58-0.2-0.96-0.53-0.96-1.04c0-0.6,0.5-1.06,1.33-1.06c0.39,0,0.69,0.08,0.89,0.18l-0.18,0.64c-0.14-0.07-0.39-0.17-0.73-0.17
		c-0.34,0-0.51,0.16-0.51,0.34c0,0.22,0.2,0.32,0.65,0.49c0.62,0.23,0.91,0.55,0.91,1.05c0,0.59-0.45,1.09-1.42,1.09
		c-0.4,0-0.8-0.1-0.99-0.21L210.8,130.37z"/>
	<path d="M213.61,130.37c0.21,0.11,0.54,0.22,0.88,0.22c0.36,0,0.56-0.15,0.56-0.38c0-0.22-0.17-0.34-0.59-0.5
		c-0.58-0.2-0.96-0.53-0.96-1.04c0-0.6,0.5-1.06,1.33-1.06c0.39,0,0.69,0.08,0.89,0.18l-0.18,0.64c-0.14-0.07-0.39-0.17-0.73-0.17
		c-0.34,0-0.51,0.16-0.51,0.34c0,0.22,0.2,0.32,0.65,0.49c0.62,0.23,0.91,0.55,0.91,1.05c0,0.59-0.45,1.09-1.42,1.09
		c-0.4,0-0.8-0.1-0.99-0.21L213.61,130.37z"/>
	<path d="M217.21,130.29l-0.25,0.9h-0.82l1.07-3.51h1.04l1.09,3.51h-0.85l-0.27-0.9H217.21z M217.04,127.47
		c-0.02-0.44,0.15-0.66,0.4-0.66c0.14,0,0.23,0.05,0.33,0.1c0.08,0.05,0.16,0.1,0.23,0.1c0.09,0,0.12-0.05,0.14-0.22h0.35
		c0.02,0.47-0.13,0.65-0.41,0.65c-0.14,0-0.24-0.05-0.34-0.1c-0.09-0.05-0.15-0.09-0.22-0.09c-0.07,0-0.11,0.08-0.12,0.22H217.04z
		 M218.1,129.7l-0.22-0.74c-0.06-0.21-0.12-0.47-0.18-0.68h-0.01c-0.05,0.21-0.1,0.47-0.16,0.68l-0.21,0.74H218.1z"/>
	<path d="M222.88,129.4c0,1.15-0.7,1.85-1.72,1.85c-1.04,0-1.65-0.79-1.65-1.79c0-1.05,0.67-1.84,1.71-1.84
		C222.29,127.63,222.88,128.43,222.88,129.4z M220.35,129.45c0,0.69,0.32,1.17,0.85,1.17c0.54,0,0.84-0.51,0.84-1.19
		c0-0.63-0.3-1.17-0.85-1.17C220.66,128.26,220.35,128.77,220.35,129.45z"/>
</g>
<path class="st1" d="M126.55,123.93h107.08c1.65,0,3-1.34,3-3v-13.42c0-1.65-1.34-3-3-3H126.55c-1.65,0-3,1.34-3,3v13.42
	C123.55,122.59,124.9,123.93,126.55,123.93z"/>
<g>
	<path d="M177.13,106.31c0.25-0.04,0.63-0.07,1.06-0.07c0.52,0,0.88,0.08,1.13,0.28c0.21,0.17,0.32,0.41,0.32,0.73
		c0,0.45-0.32,0.75-0.62,0.86v0.02c0.25,0.1,0.38,0.33,0.47,0.66c0.11,0.4,0.22,0.85,0.29,0.99h-0.81c-0.06-0.1-0.14-0.39-0.25-0.82
		c-0.09-0.44-0.24-0.56-0.57-0.56h-0.24v1.38h-0.79V106.31z M177.92,107.81h0.31c0.4,0,0.63-0.2,0.63-0.5
		c0-0.32-0.22-0.48-0.58-0.49c-0.19,0-0.3,0.02-0.36,0.03V107.81z"/>
	<path d="M183.12,109.6c-0.24,0.08-0.71,0.2-1.17,0.2c-0.64,0-1.1-0.16-1.43-0.47c-0.32-0.3-0.5-0.76-0.49-1.27
		c0.01-1.17,0.85-1.83,2-1.83c0.45,0,0.8,0.09,0.97,0.17l-0.17,0.63c-0.19-0.08-0.43-0.15-0.82-0.15c-0.66,0-1.16,0.37-1.16,1.13
		c0,0.72,0.45,1.15,1.1,1.15c0.18,0,0.33-0.02,0.39-0.05v-0.73h-0.54v-0.62h1.31V109.6z"/>
</g>
</svg>
